<svg version="1.1" xmlns="http://www.w3.org/2000/svg" viewBox="0 0 660 232" width="1320" height="464">
  <!-- svg-source:excalidraw -->
  
  <defs>
    <style>
      @font-face {
        font-family: "Virgil";
        src: url("https://excalidraw.com/Virgil.woff2");
      }
      @font-face {
        font-family: "Cascadia";
        src: url("https://excalidraw.com/Cascadia.woff2");
      }
    </style>
  </defs>
  <rect x="0" y="0" width="660" height="232" fill="#f8f9fa"></rect><g stroke-linecap="round" transform="translate(10 150) rotate(0 80 36)"><path d="M18 0 L142 0 L149.88 1.13 L155.5 4.5 L157.47 7.03 L159.72 13.78 L160 54 L158.88 61.88 L157.47 64.97 L152.97 69.47 L149.88 70.88 L142 72 L18 72 L10.13 70.88 L4.5 67.5 L2.53 64.97 L0.28 58.22 L0.28 13.78 L1.13 10.13 L4.5 4.5 L10.13 1.13 L18 0" stroke="none" stroke-width="0" fill="#FFF"></path><path d="M18 0 M18 0 C60.04 0, 102.09 0, 142 0 M18 0 C60.59 0, 103.19 0, 142 0 M142 0 C154 0, 160 6, 160 18 M142 0 C154 0, 160 6, 160 18 M160 18 C160 29.21, 160 40.43, 160 54 M160 18 C160 28.96, 160 39.91, 160 54 M160 54 C160 66, 154 72, 142 72 M160 54 C160 66, 154 72, 142 72 M142 72 C113.77 72, 85.53 72, 18 72 M142 72 C109.24 72, 76.47 72, 18 72 M18 72 C6 72, 0 66, 0 54 M18 72 C6 72, 0 66, 0 54 M0 54 C0 42.94, 0 31.88, 0 18 M0 54 C0 40.73, 0 27.47, 0 18 M0 18 C0 6, 6 0, 18 0 M0 18 C0 6, 6 0, 18 0" stroke="#4285f4" stroke-width="2" fill="none"></path></g><g transform="translate(75 179) rotate(0 15.5 7)"><text x="0" y="11" font-family="Helvetica, Segoe UI Emoji" font-size="12px" fill="#000000" text-anchor="start" style="white-space: pre;" direction="ltr">Client</text></g><g stroke-linecap="round" transform="translate(270 150) rotate(0 80 36)"><path d="M18 0 L142 0 L149.88 1.13 L155.5 4.5 L157.47 7.03 L159.72 13.78 L160 54 L158.88 61.88 L157.47 64.97 L152.97 69.47 L149.88 70.88 L142 72 L18 72 L10.13 70.88 L4.5 67.5 L2.53 64.97 L0.28 58.22 L0.28 13.78 L1.13 10.13 L4.5 4.5 L10.13 1.13 L18 0" stroke="none" stroke-width="0" fill="#FFF"></path><path d="M18 0 M18 0 C64.59 0, 111.18 0, 142 0 M18 0 C56.63 0, 95.25 0, 142 0 M142 0 C154 0, 160 6, 160 18 M142 0 C154 0, 160 6, 160 18 M160 18 C160 30.8, 160 43.59, 160 54 M160 18 C160 26.2, 160 34.39, 160 54 M160 54 C160 66, 154 72, 142 72 M160 54 C160 66, 154 72, 142 72 M142 72 C100.82 72, 59.63 72, 18 72 M142 72 C103.91 72, 65.82 72, 18 72 M18 72 C6 72, 0 66, 0 54 M18 72 C6 72, 0 66, 0 54 M0 54 C0 42.99, 0 31.97, 0 18 M0 54 C0 46.11, 0 38.22, 0 18 M0 18 C0 6, 6 0, 18 0 M0 18 C0 6, 6 0, 18 0" stroke="#4285f4" stroke-width="2" fill="none"></path></g><g transform="translate(335 179) rotate(0 42.5 7)"><text x="0" y="13" font-family="Helvetica, Segoe UI Emoji" font-size="12px" fill="#000000" text-anchor="start" style="white-space: pre;" direction="ltr">Cloud Functions</text></g><g stroke-linecap="round"><g transform="translate(288.31317007541656 190.98376846313477) rotate(0 2.121898829936981 -5.035223007202148)" fill-rule="evenodd"><path d="M0 0 L4.24 3.45 L4.24 -13.52 L0 -10.09 L0 0" stroke="none" stroke-width="0" fill="#669df6" fill-rule="evenodd"></path><path d="M0 0 C1.39 1.13, 2.78 2.26, 4.24 3.45 M0 0 C1.2 0.97, 2.39 1.94, 4.24 3.45 M4.24 3.45 C4.24 -2.65, 4.24 -8.75, 4.24 -13.52 M4.24 3.45 C4.24 -2.63, 4.24 -8.7, 4.24 -13.52 M4.24 -13.52 C2.79 -12.35, 1.34 -11.17, 0 -10.09 M4.24 -13.52 C2.68 -12.25, 1.11 -10.98, 0 -10.09 M0 -10.09 C0 -7.62, 0 -5.16, 0 0 M0 -10.09 C0 -7.12, 0 -4.15, 0 0 M0 0 C0 0, 0 0, 0 0 M0 0 C0 0, 0 0, 0 0" stroke="#00000000" stroke-width="1" fill="none"></path></g></g><g stroke-linecap="round"><g transform="translate(288.31317007541656 183.11853122711182) rotate(0 2.121898829936981 -2.8275656700134277)" fill-rule="evenodd"><path d="M0 0 L4.24 -2.83 L4.24 -5.66 L0 0" stroke="none" stroke-width="0" fill="#4285f4" fill-rule="evenodd"></path><path d="M0 0 C0.98 -0.65, 1.96 -1.31, 4.24 -2.83 M0 0 C0.98 -0.65, 1.95 -1.3, 4.24 -2.83 M4.24 -2.83 C4.24 -3.95, 4.24 -5.06, 4.24 -5.66 M4.24 -2.83 C4.24 -3.8, 4.24 -4.77, 4.24 -5.66 M4.24 -5.66 C2.97 -3.96, 1.69 -2.26, 0 0 M4.24 -5.66 C2.95 -3.93, 1.66 -2.21, 0 0 M0 0 C0 0, 0 0, 0 0 M0 0 C0 0, 0 0, 0 0" stroke="#00000000" stroke-width="1" fill="none"></path></g></g><g stroke-linecap="round"><g transform="translate(292.5569677352905 194.43369102478027) rotate(0 -2.121898829936981 -2.830015182495117)" fill-rule="evenodd"><path d="M0 0 L0 -2.83 L-4.24 -5.66 L0 0" stroke="none" stroke-width="0" fill="#4285f4" fill-rule="evenodd"></path><path d="M0 0 C0 -0.72, 0 -1.44, 0 -2.83 M0 0 C0 -1.06, 0 -2.11, 0 -2.83 M0 -2.83 C-1.62 -3.91, -3.24 -4.99, -4.24 -5.66 M0 -2.83 C-1.17 -3.61, -2.34 -4.39, -4.24 -5.66 M-4.24 -5.66 C-3.06 -4.09, -1.89 -2.52, 0 0 M-4.24 -5.66 C-3.13 -4.17, -2.01 -2.68, 0 0 M0 0 C0 0, 0 0, 0 0 M0 0 C0 0, 0 0, 0 0" stroke="#00000000" stroke-width="1" fill="none"></path></g></g><g stroke-linecap="round"><g transform="translate(296.79586601257324 197.26125526428223) rotate(0 -4.241347968578339 -2.830014228820801)" fill-rule="evenodd"><path d="M0 0 L-8.48 -8.49 L-8.48 -2.83 L-2.83 2.83 L0 0" stroke="none" stroke-width="0" fill="#aecbfa" fill-rule="evenodd"></path><path d="M0 0 C-2.2 -2.2, -4.4 -4.41, -8.48 -8.49 M0 0 C-3.27 -3.27, -6.54 -6.54, -8.48 -8.49 M-8.48 -8.49 C-8.48 -7.33, -8.48 -6.17, -8.48 -2.83 M-8.48 -8.49 C-8.48 -6.61, -8.48 -4.74, -8.48 -2.83 M-8.48 -2.83 C-6.81 -1.15, -5.13 0.53, -2.83 2.83 M-8.48 -2.83 C-6.28 -0.63, -4.08 1.58, -2.83 2.83 M-2.83 2.83 C-2 2, -1.17 1.17, 0 0 M-2.83 2.83 C-2.14 2.14, -1.45 1.45, 0 0 M0 0 C0 0, 0 0, 0 0 M0 0 C0 0, 0 0, 0 0" stroke="#00000000" stroke-width="1" fill="none"></path></g></g><g stroke-linecap="round"><g transform="translate(293.9535994529724 171.82297098636627) rotate(0 -1.4039823412895203 5.647780120372772)" fill-rule="evenodd"><path d="M0 0 L-5.64 5.64 L-5.63 11.3 L2.83 2.83 L0 0" stroke="none" stroke-width="0" fill="#aecbfa" fill-rule="evenodd"></path><path d="M0 0 C-1.14 1.14, -2.27 2.27, -5.64 5.64 M0 0 C-1.68 1.68, -3.36 3.36, -5.64 5.64 M-5.64 5.64 C-5.64 6.84, -5.63 8.04, -5.63 11.3 M-5.64 5.64 C-5.64 7.45, -5.63 9.27, -5.63 11.3 M-5.63 11.3 C-2.81 8.47, 0.01 5.65, 2.83 2.83 M-5.63 11.3 C-3.71 9.38, -1.79 7.46, 2.83 2.83 M2.83 2.83 C2.23 2.23, 1.63 1.63, 0 0 M2.83 2.83 C2.18 2.18, 1.53 1.53, 0 0 M0 0 C0 0, 0 0, 0 0 M0 0 C0 0, 0 0, 0 0" stroke="#00000000" stroke-width="1" fill="none"></path></g></g><g stroke-linecap="round"><g transform="translate(316.5937213897705 180.9280252456665) rotate(0 -2.119448661804199 5.035222053527832)" fill-rule="evenodd"><path d="M0 0 L-4.24 -3.45 L-4.24 13.52 L0 10.09 L0 0" stroke="none" stroke-width="0" fill="#669df6" fill-rule="evenodd"></path><path d="M0 0 C-0.86 -0.7, -1.72 -1.4, -4.24 -3.45 M0 0 C-1.33 -1.08, -2.65 -2.16, -4.24 -3.45 M-4.24 -3.45 C-4.24 2.3, -4.24 8.06, -4.24 13.52 M-4.24 -3.45 C-4.24 1.96, -4.24 7.37, -4.24 13.52 M-4.24 13.52 C-2.92 12.45, -1.6 11.39, 0 10.09 M-4.24 13.52 C-2.76 12.32, -1.27 11.12, 0 10.09 M0 10.09 C0 7.8, 0 5.5, 0 0 M0 10.09 C0 6.22, 0 2.35, 0 0 M0 0 C0 0, 0 0, 0 0 M0 0 C0 0, 0 0, 0 0" stroke="#00000000" stroke-width="1" fill="none"></path></g></g><g stroke-linecap="round"><g transform="translate(316.5937213897705 188.78836250305176) rotate(0 -2.119448661804199 2.830015182495117)" fill-rule="evenodd"><path d="M0 0 L-4.24 2.83 L-4.24 5.66 L0 0" stroke="none" stroke-width="0" fill="#4285f4" fill-rule="evenodd"></path><path d="M0 0 C-1.41 0.94, -2.82 1.88, -4.24 2.83 M0 0 C-1.13 0.75, -2.26 1.51, -4.24 2.83 M-4.24 2.83 C-4.24 3.77, -4.24 4.72, -4.24 5.66 M-4.24 2.83 C-4.24 3.66, -4.24 4.49, -4.24 5.66 M-4.24 5.66 C-2.56 3.42, -0.89 1.18, 0 0 M-4.24 5.66 C-2.71 3.62, -1.18 1.57, 0 0 M0 0 C0 0, 0 0, 0 0 M0 0 C0 0, 0 0, 0 0" stroke="#00000000" stroke-width="1" fill="none"></path></g></g><g stroke-linecap="round"><g transform="translate(312.3548240661621 177.47810173034668) rotate(0 2.119448661804199 2.8275651931762695)" fill-rule="evenodd"><path d="M0 0 L0 2.83 L4.24 5.66 L0 0" stroke="none" stroke-width="0" fill="#4285f4" fill-rule="evenodd"></path><path d="M0 0 C0 0.76, 0 1.51, 0 2.83 M0 0 C0 1.12, 0 2.23, 0 2.83 M0 2.83 C1.3 3.7, 2.6 4.56, 4.24 5.66 M0 2.83 C1.61 3.9, 3.22 4.98, 4.24 5.66 M4.24 5.66 C3.1 4.14, 1.96 2.62, 0 0 M4.24 5.66 C3.23 4.31, 2.23 2.97, 0 0 M0 0 C0 0, 0 0, 0 0 M0 0 C0 0, 0 0, 0 0" stroke="#00000000" stroke-width="1" fill="none"></path></g></g><g stroke-linecap="round"><g transform="translate(308.111026763916 174.65053606033325) rotate(0 4.241347312927246 2.8275654911994934)" fill-rule="evenodd"><path d="M0 0 L8.48 8.48 L8.48 2.83 L2.83 -2.83 L0 0" stroke="none" stroke-width="0" fill="#aecbfa" fill-rule="evenodd"></path><path d="M0 0 C1.83 1.83, 3.66 3.66, 8.48 8.48 M0 0 C1.76 1.76, 3.53 3.53, 8.48 8.48 M8.48 8.48 C8.48 6.83, 8.48 5.18, 8.48 2.83 M8.48 8.48 C8.48 7.06, 8.48 5.64, 8.48 2.83 M8.48 2.83 C6.91 1.26, 5.34 -0.31, 2.83 -2.83 M8.48 2.83 C6.43 0.78, 4.38 -1.27, 2.83 -2.83 M2.83 -2.83 C1.85 -1.85, 0.87 -0.87, 0 0 M2.83 -2.83 C1.86 -1.86, 0.9 -0.9, 0 0 M0 0 C0 0, 0 0, 0 0 M0 0 C0 0, 0 0, 0 0" stroke="#00000000" stroke-width="1" fill="none"></path></g></g><g stroke-linecap="round"><g transform="translate(310.9532928466797 200.0888214111328) rotate(0 1.4064311981201172 -5.650229454040527)" fill-rule="evenodd"><path d="M0 0 L5.64 -5.64 L5.63 -11.3 L-2.83 -2.83 L0 0" stroke="none" stroke-width="0" fill="#aecbfa" fill-rule="evenodd"></path><path d="M0 0 C1.79 -1.79, 3.58 -3.58, 5.64 -5.64 M0 0 C1.9 -1.9, 3.8 -3.8, 5.64 -5.64 M5.64 -5.64 C5.64 -6.83, 5.63 -8.02, 5.63 -11.3 M5.64 -5.64 C5.63 -7.77, 5.63 -9.89, 5.63 -11.3 M5.63 -11.3 C3.75 -9.42, 1.87 -7.54, -2.83 -2.83 M5.63 -11.3 C2.62 -8.29, -0.38 -5.28, -2.83 -2.83 M-2.83 -2.83 C-2.07 -2.07, -1.3 -1.3, 0 0 M-2.83 -2.83 C-1.89 -1.89, -0.95 -0.95, 0 0 M0 0 C0 0, 0 0, 0 0 M0 0 C0 0, 0 0, 0 0" stroke="#00000000" stroke-width="1" fill="none"></path></g></g><g stroke-linecap="round" transform="translate(295.3796329498291 184.52986240386963) rotate(0 1.4162328243255615 1.4162328243255615)"><path d="M2.83 1.42 C2.83 1.5, 2.83 1.58, 2.81 1.66 C2.8 1.74, 2.78 1.82, 2.75 1.9 C2.72 1.98, 2.68 2.05, 2.64 2.12 C2.6 2.2, 2.55 2.26, 2.5 2.33 C2.45 2.39, 2.39 2.45, 2.33 2.5 C2.26 2.55, 2.2 2.6, 2.12 2.64 C2.05 2.68, 1.98 2.72, 1.9 2.75 C1.82 2.78, 1.74 2.8, 1.66 2.81 C1.58 2.83, 1.5 2.83, 1.42 2.83 C1.33 2.83, 1.25 2.83, 1.17 2.81 C1.09 2.8, 1.01 2.78, 0.93 2.75 C0.85 2.72, 0.78 2.68, 0.71 2.64 C0.64 2.6, 0.57 2.55, 0.51 2.5 C0.44 2.45, 0.38 2.39, 0.33 2.33 C0.28 2.26, 0.23 2.2, 0.19 2.12 C0.15 2.05, 0.11 1.98, 0.09 1.9 C0.06 1.82, 0.04 1.74, 0.02 1.66 C0.01 1.58, 0 1.5, 0 1.42 C0 1.33, 0.01 1.25, 0.02 1.17 C0.04 1.09, 0.06 1.01, 0.09 0.93 C0.11 0.85, 0.15 0.78, 0.19 0.71 C0.23 0.64, 0.28 0.57, 0.33 0.51 C0.38 0.44, 0.44 0.38, 0.51 0.33 C0.57 0.28, 0.64 0.23, 0.71 0.19 C0.78 0.15, 0.85 0.11, 0.93 0.09 C1.01 0.06, 1.09 0.04, 1.17 0.02 C1.25 0.01, 1.33 0, 1.42 0 C1.5 0, 1.58 0.01, 1.66 0.02 C1.74 0.04, 1.82 0.06, 1.9 0.09 C1.98 0.11, 2.05 0.15, 2.12 0.19 C2.2 0.23, 2.26 0.28, 2.33 0.33 C2.39 0.38, 2.45 0.44, 2.5 0.51 C2.55 0.57, 2.6 0.64, 2.64 0.71 C2.68 0.78, 2.72 0.85, 2.75 0.93 C2.78 1.01, 2.8 1.09, 2.81 1.17 C2.83 1.25, 2.83 1.38, 2.83 1.42 C2.84 1.46, 2.84 1.38, 2.83 1.42" stroke="none" stroke-width="0" fill="#aecbfa"></path><path d="M2.83 1.42 C2.83 1.5, 2.83 1.58, 2.81 1.66 C2.8 1.74, 2.78 1.82, 2.75 1.9 C2.72 1.98, 2.68 2.05, 2.64 2.12 C2.6 2.2, 2.55 2.26, 2.5 2.33 C2.45 2.39, 2.39 2.45, 2.33 2.5 C2.26 2.55, 2.2 2.6, 2.12 2.64 C2.05 2.68, 1.98 2.72, 1.9 2.75 C1.82 2.78, 1.74 2.8, 1.66 2.81 C1.58 2.83, 1.5 2.83, 1.42 2.83 C1.33 2.83, 1.25 2.83, 1.17 2.81 C1.09 2.8, 1.01 2.78, 0.93 2.75 C0.85 2.72, 0.78 2.68, 0.71 2.64 C0.64 2.6, 0.57 2.55, 0.51 2.5 C0.44 2.45, 0.38 2.39, 0.33 2.33 C0.28 2.26, 0.23 2.2, 0.19 2.12 C0.15 2.05, 0.11 1.98, 0.09 1.9 C0.06 1.82, 0.04 1.74, 0.02 1.66 C0.01 1.58, 0 1.5, 0 1.42 C0 1.33, 0.01 1.25, 0.02 1.17 C0.04 1.09, 0.06 1.01, 0.09 0.93 C0.11 0.85, 0.15 0.78, 0.19 0.71 C0.23 0.64, 0.28 0.57, 0.33 0.51 C0.38 0.44, 0.44 0.38, 0.51 0.33 C0.57 0.28, 0.64 0.23, 0.71 0.19 C0.78 0.15, 0.85 0.11, 0.93 0.09 C1.01 0.06, 1.09 0.04, 1.17 0.02 C1.25 0.01, 1.33 0, 1.42 0 C1.5 0, 1.58 0.01, 1.66 0.02 C1.74 0.04, 1.82 0.06, 1.9 0.09 C1.98 0.11, 2.05 0.15, 2.12 0.19 C2.2 0.23, 2.26 0.28, 2.33 0.33 C2.39 0.38, 2.45 0.44, 2.5 0.51 C2.55 0.57, 2.6 0.64, 2.64 0.71 C2.68 0.78, 2.72 0.85, 2.75 0.93 C2.78 1.01, 2.8 1.09, 2.81 1.17 C2.83 1.25, 2.83 1.38, 2.83 1.42 C2.84 1.46, 2.84 1.38, 2.83 1.42" stroke="transparent" stroke-width="1" fill="none"></path></g><g stroke-linecap="round" transform="translate(301.03966426849365 184.52986240386963) rotate(0 1.4162328243255615 1.4162328243255615)"><path d="M2.83 1.42 C2.83 1.5, 2.83 1.58, 2.81 1.66 C2.8 1.74, 2.78 1.82, 2.75 1.9 C2.72 1.98, 2.68 2.05, 2.64 2.12 C2.6 2.2, 2.55 2.26, 2.5 2.33 C2.45 2.39, 2.39 2.45, 2.33 2.5 C2.26 2.55, 2.2 2.6, 2.12 2.64 C2.05 2.68, 1.98 2.72, 1.9 2.75 C1.82 2.78, 1.74 2.8, 1.66 2.81 C1.58 2.83, 1.5 2.83, 1.42 2.83 C1.33 2.83, 1.25 2.83, 1.17 2.81 C1.09 2.8, 1.01 2.78, 0.93 2.75 C0.85 2.72, 0.78 2.68, 0.71 2.64 C0.64 2.6, 0.57 2.55, 0.51 2.5 C0.44 2.45, 0.38 2.39, 0.33 2.33 C0.28 2.26, 0.23 2.2, 0.19 2.12 C0.15 2.05, 0.11 1.98, 0.09 1.9 C0.06 1.82, 0.04 1.74, 0.02 1.66 C0.01 1.58, 0 1.5, 0 1.42 C0 1.33, 0.01 1.25, 0.02 1.17 C0.04 1.09, 0.06 1.01, 0.09 0.93 C0.11 0.85, 0.15 0.78, 0.19 0.71 C0.23 0.64, 0.28 0.57, 0.33 0.51 C0.38 0.44, 0.44 0.38, 0.51 0.33 C0.57 0.28, 0.64 0.23, 0.71 0.19 C0.78 0.15, 0.85 0.11, 0.93 0.09 C1.01 0.06, 1.09 0.04, 1.17 0.02 C1.25 0.01, 1.33 0, 1.42 0 C1.5 0, 1.58 0.01, 1.66 0.02 C1.74 0.04, 1.82 0.06, 1.9 0.09 C1.98 0.11, 2.05 0.15, 2.12 0.19 C2.2 0.23, 2.26 0.28, 2.33 0.33 C2.39 0.38, 2.45 0.44, 2.5 0.51 C2.55 0.57, 2.6 0.64, 2.64 0.71 C2.68 0.78, 2.72 0.85, 2.75 0.93 C2.78 1.01, 2.8 1.09, 2.81 1.17 C2.83 1.25, 2.83 1.38, 2.83 1.42 C2.84 1.46, 2.84 1.38, 2.83 1.42" stroke="none" stroke-width="0" fill="#aecbfa"></path><path d="M2.83 1.42 C2.83 1.5, 2.83 1.58, 2.81 1.66 C2.8 1.74, 2.78 1.82, 2.75 1.9 C2.72 1.98, 2.68 2.05, 2.64 2.12 C2.6 2.2, 2.55 2.26, 2.5 2.33 C2.45 2.39, 2.39 2.45, 2.33 2.5 C2.26 2.55, 2.2 2.6, 2.12 2.64 C2.05 2.68, 1.98 2.72, 1.9 2.75 C1.82 2.78, 1.74 2.8, 1.66 2.81 C1.58 2.83, 1.5 2.83, 1.42 2.83 C1.33 2.83, 1.25 2.83, 1.17 2.81 C1.09 2.8, 1.01 2.78, 0.93 2.75 C0.85 2.72, 0.78 2.68, 0.71 2.64 C0.64 2.6, 0.57 2.55, 0.51 2.5 C0.44 2.45, 0.38 2.39, 0.33 2.33 C0.28 2.26, 0.23 2.2, 0.19 2.12 C0.15 2.05, 0.11 1.98, 0.09 1.9 C0.06 1.82, 0.04 1.74, 0.02 1.66 C0.01 1.58, 0 1.5, 0 1.42 C0 1.33, 0.01 1.25, 0.02 1.17 C0.04 1.09, 0.06 1.01, 0.09 0.93 C0.11 0.85, 0.15 0.78, 0.19 0.71 C0.23 0.64, 0.28 0.57, 0.33 0.51 C0.38 0.44, 0.44 0.38, 0.51 0.33 C0.57 0.28, 0.64 0.23, 0.71 0.19 C0.78 0.15, 0.85 0.11, 0.93 0.09 C1.01 0.06, 1.09 0.04, 1.17 0.02 C1.25 0.01, 1.33 0, 1.42 0 C1.5 0, 1.58 0.01, 1.66 0.02 C1.74 0.04, 1.82 0.06, 1.9 0.09 C1.98 0.11, 2.05 0.15, 2.12 0.19 C2.2 0.23, 2.26 0.28, 2.33 0.33 C2.39 0.38, 2.45 0.44, 2.5 0.51 C2.55 0.57, 2.6 0.64, 2.64 0.71 C2.68 0.78, 2.72 0.85, 2.75 0.93 C2.78 1.01, 2.8 1.09, 2.81 1.17 C2.83 1.25, 2.83 1.38, 2.83 1.42 C2.84 1.46, 2.84 1.38, 2.83 1.42" stroke="transparent" stroke-width="1" fill="none"></path></g><g stroke-linecap="round" transform="translate(306.68009185791016 184.52986240386963) rotate(0 1.4162328243255615 1.4162328243255615)"><path d="M2.83 1.42 C2.83 1.5, 2.83 1.58, 2.81 1.66 C2.8 1.74, 2.78 1.82, 2.75 1.9 C2.72 1.98, 2.68 2.05, 2.64 2.12 C2.6 2.2, 2.55 2.26, 2.5 2.33 C2.45 2.39, 2.39 2.45, 2.33 2.5 C2.26 2.55, 2.2 2.6, 2.12 2.64 C2.05 2.68, 1.98 2.72, 1.9 2.75 C1.82 2.78, 1.74 2.8, 1.66 2.81 C1.58 2.83, 1.5 2.83, 1.42 2.83 C1.33 2.83, 1.25 2.83, 1.17 2.81 C1.09 2.8, 1.01 2.78, 0.93 2.75 C0.85 2.72, 0.78 2.68, 0.71 2.64 C0.64 2.6, 0.57 2.55, 0.51 2.5 C0.44 2.45, 0.38 2.39, 0.33 2.33 C0.28 2.26, 0.23 2.2, 0.19 2.12 C0.15 2.05, 0.11 1.98, 0.09 1.9 C0.06 1.82, 0.04 1.74, 0.02 1.66 C0.01 1.58, 0 1.5, 0 1.42 C0 1.33, 0.01 1.25, 0.02 1.17 C0.04 1.09, 0.06 1.01, 0.09 0.93 C0.11 0.85, 0.15 0.78, 0.19 0.71 C0.23 0.64, 0.28 0.57, 0.33 0.51 C0.38 0.44, 0.44 0.38, 0.51 0.33 C0.57 0.28, 0.64 0.23, 0.71 0.19 C0.78 0.15, 0.85 0.11, 0.93 0.09 C1.01 0.06, 1.09 0.04, 1.17 0.02 C1.25 0.01, 1.33 0, 1.42 0 C1.5 0, 1.58 0.01, 1.66 0.02 C1.74 0.04, 1.82 0.06, 1.9 0.09 C1.98 0.11, 2.05 0.15, 2.12 0.19 C2.2 0.23, 2.26 0.28, 2.33 0.33 C2.39 0.38, 2.45 0.44, 2.5 0.51 C2.55 0.57, 2.6 0.64, 2.64 0.71 C2.68 0.78, 2.72 0.85, 2.75 0.93 C2.78 1.01, 2.8 1.09, 2.81 1.17 C2.83 1.25, 2.83 1.38, 2.83 1.42 C2.84 1.46, 2.84 1.38, 2.83 1.42" stroke="none" stroke-width="0" fill="#aecbfa"></path><path d="M2.83 1.42 C2.83 1.5, 2.83 1.58, 2.81 1.66 C2.8 1.74, 2.78 1.82, 2.75 1.9 C2.72 1.98, 2.68 2.05, 2.64 2.12 C2.6 2.2, 2.55 2.26, 2.5 2.33 C2.45 2.39, 2.39 2.45, 2.33 2.5 C2.26 2.55, 2.2 2.6, 2.12 2.64 C2.05 2.68, 1.98 2.72, 1.9 2.75 C1.82 2.78, 1.74 2.8, 1.66 2.81 C1.58 2.83, 1.5 2.83, 1.42 2.83 C1.33 2.83, 1.25 2.83, 1.17 2.81 C1.09 2.8, 1.01 2.78, 0.93 2.75 C0.85 2.72, 0.78 2.68, 0.71 2.64 C0.64 2.6, 0.57 2.55, 0.51 2.5 C0.44 2.45, 0.38 2.39, 0.33 2.33 C0.28 2.26, 0.23 2.2, 0.19 2.12 C0.15 2.05, 0.11 1.98, 0.09 1.9 C0.06 1.82, 0.04 1.74, 0.02 1.66 C0.01 1.58, 0 1.5, 0 1.42 C0 1.33, 0.01 1.25, 0.02 1.17 C0.04 1.09, 0.06 1.01, 0.09 0.93 C0.11 0.85, 0.15 0.78, 0.19 0.71 C0.23 0.64, 0.28 0.57, 0.33 0.51 C0.38 0.44, 0.44 0.38, 0.51 0.33 C0.57 0.28, 0.64 0.23, 0.71 0.19 C0.78 0.15, 0.85 0.11, 0.93 0.09 C1.01 0.06, 1.09 0.04, 1.17 0.02 C1.25 0.01, 1.33 0, 1.42 0 C1.5 0, 1.58 0.01, 1.66 0.02 C1.74 0.04, 1.82 0.06, 1.9 0.09 C1.98 0.11, 2.05 0.15, 2.12 0.19 C2.2 0.23, 2.26 0.28, 2.33 0.33 C2.39 0.38, 2.45 0.44, 2.5 0.51 C2.55 0.57, 2.6 0.64, 2.64 0.71 C2.68 0.78, 2.72 0.85, 2.75 0.93 C2.78 1.01, 2.8 1.09, 2.81 1.17 C2.83 1.25, 2.83 1.38, 2.83 1.42 C2.84 1.46, 2.84 1.38, 2.83 1.42" stroke="transparent" stroke-width="1" fill="none"></path></g><g stroke-linecap="round" transform="translate(330 10) rotate(0 80 36)"><path d="M18 0 L142 0 L149.88 1.13 L155.5 4.5 L157.47 7.03 L159.72 13.78 L160 54 L158.88 61.88 L157.47 64.97 L152.97 69.47 L149.88 70.88 L142 72 L18 72 L10.13 70.88 L4.5 67.5 L2.53 64.97 L0.28 58.22 L0.28 13.78 L1.13 10.13 L4.5 4.5 L10.13 1.13 L18 0" stroke="none" stroke-width="0" fill="#FFF"></path><path d="M18 0 M18 0 C43.89 0, 69.79 0, 142 0 M18 0 C58.78 0, 99.56 0, 142 0 M142 0 C154 0, 160 6, 160 18 M142 0 C154 0, 160 6, 160 18 M160 18 C160 30.5, 160 43, 160 54 M160 18 C160 30.55, 160 43.1, 160 54 M160 54 C160 66, 154 72, 142 72 M160 54 C160 66, 154 72, 142 72 M142 72 C110.49 72, 78.98 72, 18 72 M142 72 C108.35 72, 74.69 72, 18 72 M18 72 C6 72, 0 66, 0 54 M18 72 C6 72, 0 66, 0 54 M0 54 C0 46.21, 0 38.41, 0 18 M0 54 C0 43.48, 0 32.96, 0 18 M0 18 C0 6, 6 0, 18 0 M0 18 C0 6, 6 0, 18 0" stroke="#4285f4" stroke-width="2" fill="none"></path></g><g transform="translate(390 30) rotate(0 47.5 14)"><text x="0" y="11" font-family="Helvetica, Segoe UI Emoji" font-size="12px" fill="#000000" text-anchor="start" style="white-space: pre;" direction="ltr">Natural Language</text><text x="0" y="25" font-family="Helvetica, Segoe UI Emoji" font-size="12px" fill="#000000" text-anchor="start" style="white-space: pre;" direction="ltr">API</text></g><g stroke-linecap="round"><g transform="translate(352.5 52.29333305358887) rotate(0 3.888888716697693 -9.146666526794434)" fill-rule="evenodd"><path d="M0 0 L6.67 -11.44 L8.89 -11.44 L11.11 -14.86 L8.87 -18.29 L3.33 -18.29 L-3.33 -6.86 L0 0 L0 0" stroke="none" stroke-width="0" fill="#4285f4" fill-rule="evenodd"></path><path d="M0 0 C1.37 -2.36, 2.75 -4.71, 6.67 -11.44 M0 0 C1.94 -3.32, 3.87 -6.64, 6.67 -11.44 M6.67 -11.44 C7.47 -11.44, 8.27 -11.44, 8.89 -11.44 M6.67 -11.44 C7.27 -11.44, 7.88 -11.44, 8.89 -11.44 M8.89 -11.44 C9.78 -12.81, 10.67 -14.18, 11.11 -14.86 M8.89 -11.44 C9.36 -12.17, 9.83 -12.89, 11.11 -14.86 M11.11 -14.86 C10.54 -15.73, 9.97 -16.6, 8.87 -18.29 M11.11 -14.86 C10.47 -15.84, 9.83 -16.82, 8.87 -18.29 M8.87 -18.29 C6.67 -18.29, 4.46 -18.29, 3.33 -18.29 M8.87 -18.29 C6.94 -18.29, 5.02 -18.29, 3.33 -18.29 M3.33 -18.29 C1.24 -14.71, -0.85 -11.12, -3.33 -6.86 M3.33 -18.29 C1.56 -15.24, -0.22 -12.2, -3.33 -6.86 M-3.33 -6.86 C-2.16 -4.44, -0.98 -2.02, 0 0 M-3.33 -6.86 C-2.48 -5.1, -1.62 -3.33, 0 0 M0 0 C0 0, 0 0, 0 0 M0 0 C0 0, 0 0, 0 0 M0 0 C0 0, 0 0, 0 0 M0 0 C0 0, 0 0, 0 0" stroke="#00000000" stroke-width="1" fill="none"></path></g></g><g stroke-linecap="round"><g transform="translate(365.8333339691162 37.431110858917236) rotate(0 1.1111106872558594 -0.004444122314453125)" fill-rule="evenodd"><path d="M0 0 L-2.22 3.42 L2.22 3.42 L4.44 0 L2.22 -3.43 L-2.22 -3.43 L0 0 L0 0" stroke="none" stroke-width="0" fill="#669df6cc" fill-rule="evenodd"></path><path d="M0 0 C-0.48 0.74, -0.96 1.48, -2.22 3.42 M0 0 C-0.81 1.25, -1.62 2.5, -2.22 3.42 M-2.22 3.42 C-0.87 3.42, 0.49 3.42, 2.22 3.42 M-2.22 3.42 C-1.33 3.42, -0.43 3.42, 2.22 3.42 M2.22 3.42 C2.93 2.33, 3.64 1.24, 4.44 0 M2.22 3.42 C2.79 2.55, 3.35 1.68, 4.44 0 M4.44 0 C3.94 -0.78, 3.43 -1.57, 2.22 -3.43 M4.44 0 C3.58 -1.33, 2.72 -2.66, 2.22 -3.43 M2.22 -3.43 C1.24 -3.43, 0.26 -3.43, -2.22 -3.43 M2.22 -3.43 C0.74 -3.43, -0.73 -3.43, -2.22 -3.43 M-2.22 -3.43 C-1.71 -2.64, -1.2 -1.86, 0 0 M-2.22 -3.43 C-1.44 -2.22, -0.65 -1.01, 0 0 M0 0 C0 0, 0 0, 0 0 M0 0 C0 0, 0 0, 0 0 M0 0 C0 0, 0 0, 0 0 M0 0 C0 0, 0 0, 0 0" stroke="#00000000" stroke-width="1" fill="none"></path></g></g><g stroke-linecap="round"><g transform="translate(372.5 39.70666694641113) rotate(0 -3.888888359069824 9.146666526794434)" fill-rule="evenodd"><path d="M0 0 L-6.67 11.44 L-8.89 11.44 L-11.11 14.86 L-8.87 18.29 L-3.33 18.29 L3.33 6.86 L0 0 L0 0" stroke="none" stroke-width="0" fill="#aecbfa99" fill-rule="evenodd"></path><path d="M0 0 C-1.54 2.63, -3.07 5.27, -6.67 11.44 M0 0 C-1.66 2.85, -3.33 5.71, -6.67 11.44 M-6.67 11.44 C-7.24 11.44, -7.81 11.44, -8.89 11.44 M-6.67 11.44 C-7.31 11.44, -7.96 11.44, -8.89 11.44 M-8.89 11.44 C-9.72 12.72, -10.55 14, -11.11 14.86 M-8.89 11.44 C-9.65 12.61, -10.4 13.77, -11.11 14.86 M-11.11 14.86 C-10.46 15.86, -9.81 16.86, -8.87 18.29 M-11.11 14.86 C-10.54 15.73, -9.98 16.6, -8.87 18.29 M-8.87 18.29 C-7.46 18.29, -6.06 18.29, -3.33 18.29 M-8.87 18.29 C-6.83 18.29, -4.8 18.29, -3.33 18.29 M-3.33 18.29 C-1.31 14.83, 0.71 11.37, 3.33 6.86 M-3.33 18.29 C-1.66 15.43, 0.01 12.56, 3.33 6.86 M3.33 6.86 C2.22 4.57, 1.11 2.28, 0 0 M3.33 6.86 C2.57 5.29, 1.81 3.72, 0 0 M0 0 C0 0, 0 0, 0 0 M0 0 C0 0, 0 0, 0 0 M0 0 C0 0, 0 0, 0 0 M0 0 C0 0, 0 0, 0 0" stroke="#00000000" stroke-width="1" fill="none"></path></g></g><g stroke-linecap="round"><g transform="translate(361.38888931274414 58) rotate(0 -3.3333334922790527 -3.426666259765625)" fill-rule="evenodd"><path d="M0 0 L-2.22 -3.43 L0 -6.85 L-4.44 -6.85 L-6.67 -3.43 L-4.44 0 L0 0 L0 0" stroke="none" stroke-width="0" fill="#669df6cc" fill-rule="evenodd"></path><path d="M0 0 C-0.64 -0.98, -1.27 -1.97, -2.22 -3.43 M0 0 C-0.72 -1.11, -1.43 -2.21, -2.22 -3.43 M-2.22 -3.43 C-1.38 -4.73, -0.54 -6.02, 0 -6.85 M-2.22 -3.43 C-1.61 -4.38, -0.99 -5.33, 0 -6.85 M0 -6.85 C-1.24 -6.85, -2.47 -6.85, -4.44 -6.85 M0 -6.85 C-1.55 -6.85, -3.1 -6.85, -4.44 -6.85 M-4.44 -6.85 C-4.99 -6.02, -5.53 -5.18, -6.67 -3.43 M-4.44 -6.85 C-5.24 -5.63, -6.03 -4.41, -6.67 -3.43 M-6.67 -3.43 C-5.86 -2.19, -5.06 -0.96, -4.44 0 M-6.67 -3.43 C-5.82 -2.13, -4.98 -0.82, -4.44 0 M-4.44 0 C-3.23 0, -2.01 0, 0 0 M-4.44 0 C-3.49 0, -2.53 0, 0 0 M0 0 C0 0, 0 0, 0 0 M0 0 C0 0, 0 0, 0 0 M0 0 C0 0, 0 0, 0 0 M0 0 C0 0, 0 0, 0 0" stroke="#00000000" stroke-width="1" fill="none"></path></g></g><g stroke-linecap="round" transform="translate(490 150) rotate(0 80 36)"><path d="M18 0 L142 0 L149.88 1.13 L155.5 4.5 L157.47 7.03 L159.72 13.78 L160 54 L158.88 61.88 L157.47 64.97 L152.97 69.47 L149.88 70.88 L142 72 L18 72 L10.13 70.88 L4.5 67.5 L2.53 64.97 L0.28 58.22 L0.28 13.78 L1.13 10.13 L4.5 4.5 L10.13 1.13 L18 0" stroke="none" stroke-width="0" fill="#FFF"></path><path d="M18 0 M18 0 C44.11 0, 70.23 0, 142 0 M18 0 C67.51 0, 117.01 0, 142 0 M142 0 C154 0, 160 6, 160 18 M142 0 C154 0, 160 6, 160 18 M160 18 C160 26.57, 160 35.13, 160 54 M160 18 C160 25.56, 160 33.12, 160 54 M160 54 C160 66, 154 72, 142 72 M160 54 C160 66, 154 72, 142 72 M142 72 C108.82 72, 75.65 72, 18 72 M142 72 C108.69 72, 75.39 72, 18 72 M18 72 C6 72, 0 66, 0 54 M18 72 C6 72, 0 66, 0 54 M0 54 C0 45.19, 0 36.38, 0 18 M0 54 C0 40.24, 0 26.48, 0 18 M0 18 C0 6, 6 0, 18 0 M0 18 C0 6, 6 0, 18 0" stroke="#4285f4" stroke-width="2" fill="none"></path></g><g transform="translate(555 179) rotate(0 42.5 7)"><text x="0" y="13" font-family="Helvetica, Segoe UI Emoji" font-size="12px" fill="#000000" text-anchor="start" style="white-space: pre;" direction="ltr">BigQuery</text></g><g stroke-linecap="round"><g transform="translate(531.0616226196289 192.4000015258789) rotate(0 1.9260520935058594 3.9379072189331055)" fill-rule="evenodd"><path d="M0 0 L-2.01 2.01 L-2.01 2.01 L-2.09 2.1 L-2.14 2.21 L-2.18 2.32 L-2.19 2.43 L-2.18 2.55 L-2.15 2.66 L-2.1 2.76 L-2.02 2.86 L-2.01 2.87 L3.01 7.88 L3.01 7.88 L3.1 7.96 L3.2 8.01 L3.31 8.04 L3.42 8.05 L3.54 8.04 L3.65 8.01 L3.75 7.96 L3.84 7.88 L5.87 5.86 L5.87 5.86 L5.95 5.76 L6 5.66 L6.03 5.55 L6.04 5.44 L6.03 5.33 L6 5.21 L5.95 5.11 L5.87 5.02 L0.85 0 L0.85 0 L0.76 -0.08 L0.65 -0.13 L0.54 -0.17 L0.43 -0.18 L0.31 -0.17 L0.2 -0.14 L0.1 -0.09 L0 -0.01 L0 0" stroke="none" stroke-width="0" fill="#4285f4" fill-rule="evenodd"></path><path d="M0 0 C-0.55 0.55, -1.1 1.1, -2.01 2.01 M0 0 C-0.43 0.43, -0.86 0.86, -2.01 2.01 M-2.01 2.01 C-2.01 2.01, -2.01 2.01, -2.01 2.01 M-2.01 2.01 C-2.01 2.01, -2.01 2.01, -2.01 2.01 M-2.01 2.01 C-2.04 2.04, -2.06 2.07, -2.09 2.1 M-2.01 2.01 C-2.03 2.04, -2.05 2.06, -2.09 2.1 M-2.09 2.1 C-2.11 2.14, -2.13 2.18, -2.14 2.21 M-2.09 2.1 C-2.1 2.13, -2.12 2.15, -2.14 2.21 M-2.14 2.21 C-2.16 2.25, -2.17 2.29, -2.18 2.32 M-2.14 2.21 C-2.15 2.24, -2.16 2.26, -2.18 2.32 M-2.18 2.32 C-2.18 2.35, -2.19 2.38, -2.19 2.43 M-2.18 2.32 C-2.18 2.34, -2.18 2.37, -2.19 2.43 M-2.19 2.43 C-2.19 2.47, -2.18 2.51, -2.18 2.55 M-2.19 2.43 C-2.19 2.48, -2.18 2.52, -2.18 2.55 M-2.18 2.55 C-2.17 2.57, -2.17 2.59, -2.15 2.66 M-2.18 2.55 C-2.17 2.58, -2.16 2.62, -2.15 2.66 M-2.15 2.66 C-2.13 2.7, -2.11 2.74, -2.1 2.76 M-2.15 2.66 C-2.14 2.68, -2.12 2.71, -2.1 2.76 M-2.1 2.76 C-2.07 2.8, -2.04 2.83, -2.02 2.86 M-2.1 2.76 C-2.08 2.78, -2.07 2.8, -2.02 2.86 M-2.02 2.86 C-2.02 2.86, -2.01 2.86, -2.01 2.87 M-2.02 2.86 C-2.02 2.86, -2.02 2.86, -2.01 2.87 M-2.01 2.87 C-0.58 4.3, 0.85 5.73, 3.01 7.88 M-2.01 2.87 C-0.11 4.76, 1.79 6.66, 3.01 7.88 M3.01 7.88 C3.01 7.88, 3.01 7.88, 3.01 7.88 M3.01 7.88 C3.01 7.88, 3.01 7.88, 3.01 7.88 M3.01 7.88 C3.04 7.91, 3.07 7.93, 3.1 7.96 M3.01 7.88 C3.04 7.91, 3.06 7.93, 3.1 7.96 M3.1 7.96 C3.13 7.97, 3.15 7.99, 3.2 8.01 M3.1 7.96 C3.14 7.98, 3.18 8, 3.2 8.01 M3.2 8.01 C3.23 8.02, 3.26 8.03, 3.31 8.04 M3.2 8.01 C3.24 8.02, 3.29 8.04, 3.31 8.04 M3.31 8.04 C3.34 8.05, 3.36 8.05, 3.42 8.05 M3.31 8.04 C3.35 8.05, 3.39 8.05, 3.42 8.05 M3.42 8.05 C3.45 8.05, 3.47 8.05, 3.54 8.04 M3.42 8.05 C3.45 8.05, 3.48 8.05, 3.54 8.04 M3.54 8.04 C3.57 8.03, 3.6 8.02, 3.65 8.01 M3.54 8.04 C3.57 8.03, 3.61 8.02, 3.65 8.01 M3.65 8.01 C3.68 7.99, 3.72 7.98, 3.75 7.96 M3.65 8.01 C3.68 8, 3.71 7.98, 3.75 7.96 M3.75 7.96 C3.78 7.94, 3.8 7.92, 3.84 7.88 M3.75 7.96 C3.78 7.94, 3.8 7.92, 3.84 7.88 M3.84 7.88 C4.56 7.16, 5.28 6.45, 5.87 5.86 M3.84 7.88 C4.25 7.47, 4.66 7.07, 5.87 5.86 M5.87 5.86 C5.87 5.86, 5.87 5.86, 5.87 5.86 M5.87 5.86 C5.87 5.86, 5.87 5.86, 5.87 5.86 M5.87 5.86 C5.9 5.82, 5.93 5.78, 5.95 5.76 M5.87 5.86 C5.9 5.82, 5.92 5.79, 5.95 5.76 M5.95 5.76 C5.96 5.73, 5.98 5.71, 6 5.66 M5.95 5.76 C5.96 5.73, 5.98 5.69, 6 5.66 M6 5.66 C6.01 5.62, 6.03 5.58, 6.03 5.55 M6 5.66 C6.01 5.64, 6.01 5.62, 6.03 5.55 M6.03 5.55 C6.03 5.52, 6.04 5.5, 6.04 5.44 M6.03 5.55 C6.04 5.51, 6.04 5.47, 6.04 5.44 M6.04 5.44 C6.04 5.41, 6.04 5.38, 6.03 5.33 M6.04 5.44 C6.04 5.41, 6.04 5.39, 6.03 5.33 M6.03 5.33 C6.02 5.28, 6.01 5.24, 6 5.21 M6.03 5.33 C6.02 5.29, 6.01 5.26, 6 5.21 M6 5.21 C5.99 5.19, 5.97 5.16, 5.95 5.11 M6 5.21 C5.99 5.19, 5.97 5.16, 5.95 5.11 M5.95 5.11 C5.92 5.08, 5.9 5.06, 5.87 5.02 M5.95 5.11 C5.92 5.08, 5.9 5.05, 5.87 5.02 M5.87 5.02 C4.08 3.23, 2.3 1.45, 0.85 0 M5.87 5.02 C4.14 3.29, 2.4 1.55, 0.85 0 M0.85 0 C0.85 0, 0.85 0, 0.85 0 M0.85 0 C0.85 0, 0.85 0, 0.85 0 M0.85 0 C0.83 -0.02, 0.81 -0.03, 0.76 -0.08 M0.85 0 C0.83 -0.02, 0.81 -0.03, 0.76 -0.08 M0.76 -0.08 C0.72 -0.09, 0.69 -0.11, 0.65 -0.13 M0.76 -0.08 C0.73 -0.09, 0.7 -0.11, 0.65 -0.13 M0.65 -0.13 C0.62 -0.14, 0.58 -0.16, 0.54 -0.17 M0.65 -0.13 C0.62 -0.14, 0.59 -0.15, 0.54 -0.17 M0.54 -0.17 C0.51 -0.17, 0.47 -0.17, 0.43 -0.18 M0.54 -0.17 C0.5 -0.17, 0.46 -0.18, 0.43 -0.18 M0.43 -0.18 C0.39 -0.18, 0.34 -0.17, 0.31 -0.17 M0.43 -0.18 C0.4 -0.18, 0.37 -0.17, 0.31 -0.17 M0.31 -0.17 C0.29 -0.16, 0.27 -0.16, 0.2 -0.14 M0.31 -0.17 C0.29 -0.16, 0.27 -0.16, 0.2 -0.14 M0.2 -0.14 C0.18 -0.13, 0.15 -0.11, 0.1 -0.09 M0.2 -0.14 C0.16 -0.12, 0.12 -0.1, 0.1 -0.09 M0.1 -0.09 C0.07 -0.06, 0.03 -0.03, 0 -0.01 M0.1 -0.09 C0.08 -0.07, 0.05 -0.05, 0 -0.01 M0 -0.01 C0 -0.01, 0 -0.01, 0 0 M0 -0.01 C0 -0.01, 0 0, 0 0 M0 0 C0 0, 0 0, 0 0 M0 0 C0 0, 0 0, 0 0" stroke="transparent" stroke-width="1" fill="none"></path></g></g><g stroke-linecap="round"><g transform="translate(521.506552696228 172.09672379493713) rotate(0 -3.5762786865234375e-7 12.76006305217743)" fill-rule="evenodd"><path d="M0 0 L0 0 L-0.66 0.02 L-1.3 0.07 L-1.94 0.15 L-2.57 0.26 L-3.19 0.4 L-3.8 0.57 L-4.39 0.77 L-4.97 1 L-5.53 1.26 L-6.08 1.54 L-6.62 1.85 L-7.14 2.18 L-7.64 2.53 L-8.12 2.91 L-8.58 3.31 L-9.02 3.74 L-9.45 4.18 L-9.85 4.64 L-10.23 5.12 L-10.58 5.63 L-10.91 6.14 L-11.22 6.68 L-11.5 7.23 L-11.76 7.79 L-11.99 8.37 L-12.19 8.96 L-12.36 9.57 L-12.5 10.19 L-12.61 10.82 L-12.69 11.46 L-12.74 12.1 L-12.76 12.76 L-12.74 13.42 L-12.69 14.07 L-12.61 14.7 L-12.5 15.33 L-12.36 15.95 L-12.19 16.56 L-11.99 17.15 L-11.76 17.73 L-11.5 18.29 L-11.22 18.84 L-10.91 19.38 L-10.58 19.9 L-10.23 20.4 L-9.85 20.88 L-9.45 21.34 L-9.02 21.78 L-8.58 22.21 L-8.12 22.61 L-7.64 22.99 L-7.14 23.34 L-6.62 23.67 L-6.08 23.98 L-5.53 24.26 L-4.97 24.52 L-4.39 24.75 L-3.8 24.95 L-3.19 25.12 L-2.57 25.26 L-1.94 25.37 L-1.3 25.45 L-0.66 25.5 L0 25.52 L0.66 25.5 L1.3 25.45 L1.94 25.37 L2.57 25.26 L3.19 25.12 L3.8 24.95 L4.39 24.75 L4.97 24.52 L5.53 24.26 L6.08 23.98 L6.62 23.67 L7.14 23.34 L7.64 22.99 L8.12 22.61 L8.58 22.21 L9.02 21.78 L9.45 21.34 L9.85 20.88 L10.23 20.4 L10.58 19.9 L10.91 19.38 L11.22 18.84 L11.5 18.29 L11.76 17.73 L11.99 17.15 L12.19 16.56 L12.36 15.95 L12.5 15.33 L12.61 14.7 L12.69 14.07 L12.74 13.42 L12.76 12.76 L12.74 12.1 L12.69 11.46 L12.61 10.82 L12.5 10.19 L12.36 9.57 L12.19 8.96 L11.99 8.37 L11.76 7.79 L11.5 7.23 L11.22 6.68 L10.91 6.14 L10.58 5.63 L10.22 5.12 L9.85 4.64 L9.44 4.18 L9.02 3.74 L8.58 3.31 L8.12 2.91 L7.63 2.53 L7.13 2.18 L6.62 1.85 L6.08 1.54 L5.53 1.26 L4.97 1 L4.39 0.77 L3.79 0.57 L3.19 0.4 L2.57 0.26 L1.94 0.15 L1.3 0.07 L0.66 0.02 L0 0" stroke="none" stroke-width="0" fill="#669df6" fill-rule="evenodd"></path><path d="M0 0 C0 0, 0 0, 0 0 M0 0 C0 0, 0 0, 0 0 M0 0 C-0.18 0, -0.37 0.01, -0.66 0.02 M0 0 C-0.25 0.01, -0.5 0.01, -0.66 0.02 M-0.66 0.02 C-0.89 0.03, -1.12 0.05, -1.3 0.07 M-0.66 0.02 C-0.86 0.03, -1.06 0.05, -1.3 0.07 M-1.3 0.07 C-1.5 0.09, -1.7 0.12, -1.94 0.15 M-1.3 0.07 C-1.5 0.09, -1.69 0.12, -1.94 0.15 M-1.94 0.15 C-2.1 0.17, -2.25 0.2, -2.57 0.26 M-1.94 0.15 C-2.19 0.19, -2.44 0.23, -2.57 0.26 M-2.57 0.26 C-2.81 0.31, -3.04 0.37, -3.19 0.4 M-2.57 0.26 C-2.77 0.3, -2.97 0.35, -3.19 0.4 M-3.19 0.4 C-3.35 0.45, -3.51 0.49, -3.8 0.57 M-3.19 0.4 C-3.37 0.45, -3.56 0.51, -3.8 0.57 M-3.8 0.57 C-3.96 0.63, -4.13 0.69, -4.39 0.77 M-3.8 0.57 C-4 0.64, -4.21 0.71, -4.39 0.77 M-4.39 0.77 C-4.56 0.84, -4.73 0.91, -4.97 1 M-4.39 0.77 C-4.51 0.82, -4.63 0.87, -4.97 1 M-4.97 1 C-5.15 1.08, -5.33 1.16, -5.53 1.26 M-4.97 1 C-5.14 1.08, -5.31 1.16, -5.53 1.26 M-5.53 1.26 C-5.73 1.36, -5.92 1.46, -6.08 1.54 M-5.53 1.26 C-5.68 1.33, -5.83 1.41, -6.08 1.54 M-6.08 1.54 C-6.23 1.63, -6.39 1.71, -6.62 1.85 M-6.08 1.54 C-6.24 1.63, -6.4 1.72, -6.62 1.85 M-6.62 1.85 C-6.79 1.96, -6.96 2.06, -7.14 2.18 M-6.62 1.85 C-6.74 1.93, -6.87 2.01, -7.14 2.18 M-7.14 2.18 C-7.28 2.28, -7.43 2.39, -7.64 2.53 M-7.14 2.18 C-7.24 2.26, -7.35 2.33, -7.64 2.53 M-7.64 2.53 C-7.75 2.63, -7.87 2.72, -8.12 2.91 M-7.64 2.53 C-7.77 2.64, -7.9 2.74, -8.12 2.91 M-8.12 2.91 C-8.28 3.06, -8.45 3.2, -8.58 3.31 M-8.12 2.91 C-8.29 3.06, -8.47 3.21, -8.58 3.31 M-8.58 3.31 C-8.67 3.4, -8.76 3.49, -9.02 3.74 M-8.58 3.31 C-8.72 3.45, -8.86 3.58, -9.02 3.74 M-9.02 3.74 C-9.11 3.83, -9.19 3.91, -9.45 4.18 M-9.02 3.74 C-9.13 3.85, -9.24 3.96, -9.45 4.18 M-9.45 4.18 C-9.55 4.3, -9.65 4.41, -9.85 4.64 M-9.45 4.18 C-9.56 4.31, -9.68 4.44, -9.85 4.64 M-9.85 4.64 C-9.94 4.76, -10.04 4.88, -10.23 5.12 M-9.85 4.64 C-9.97 4.81, -10.1 4.97, -10.23 5.12 M-10.23 5.12 C-10.34 5.28, -10.45 5.43, -10.58 5.63 M-10.23 5.12 C-10.34 5.29, -10.46 5.45, -10.58 5.63 M-10.58 5.63 C-10.66 5.75, -10.74 5.88, -10.91 6.14 M-10.58 5.63 C-10.68 5.78, -10.78 5.94, -10.91 6.14 M-10.91 6.14 C-10.98 6.26, -11.04 6.37, -11.22 6.68 M-10.91 6.14 C-11.02 6.34, -11.14 6.53, -11.22 6.68 M-11.22 6.68 C-11.28 6.79, -11.34 6.91, -11.5 7.23 M-11.22 6.68 C-11.28 6.8, -11.34 6.92, -11.5 7.23 M-11.5 7.23 C-11.58 7.4, -11.66 7.58, -11.76 7.79 M-11.5 7.23 C-11.58 7.4, -11.66 7.58, -11.76 7.79 M-11.76 7.79 C-11.83 7.97, -11.9 8.15, -11.99 8.37 M-11.76 7.79 C-11.84 8, -11.92 8.2, -11.99 8.37 M-11.99 8.37 C-12.03 8.52, -12.08 8.66, -12.19 8.96 M-11.99 8.37 C-12.04 8.54, -12.1 8.7, -12.19 8.96 M-12.19 8.96 C-12.25 9.2, -12.32 9.44, -12.36 9.57 M-12.19 8.96 C-12.25 9.18, -12.31 9.4, -12.36 9.57 M-12.36 9.57 C-12.41 9.8, -12.47 10.03, -12.5 10.19 M-12.36 9.57 C-12.41 9.8, -12.46 10.02, -12.5 10.19 M-12.5 10.19 C-12.52 10.32, -12.55 10.45, -12.61 10.82 M-12.5 10.19 C-12.53 10.37, -12.57 10.55, -12.61 10.82 M-12.61 10.82 C-12.64 11.05, -12.67 11.28, -12.69 11.46 M-12.61 10.82 C-12.64 11, -12.66 11.18, -12.69 11.46 M-12.69 11.46 C-12.71 11.61, -12.72 11.76, -12.74 12.1 M-12.69 11.46 C-12.71 11.71, -12.73 11.97, -12.74 12.1 M-12.74 12.1 C-12.75 12.35, -12.76 12.61, -12.76 12.76 M-12.74 12.1 C-12.75 12.31, -12.75 12.52, -12.76 12.76 M-12.76 12.76 C-12.76 12.91, -12.75 13.06, -12.74 13.42 M-12.76 12.76 C-12.75 12.97, -12.75 13.17, -12.74 13.42 M-12.74 13.42 C-12.73 13.61, -12.71 13.81, -12.69 14.07 M-12.74 13.42 C-12.73 13.65, -12.71 13.88, -12.69 14.07 M-12.69 14.07 C-12.67 14.25, -12.65 14.43, -12.61 14.7 M-12.69 14.07 C-12.67 14.24, -12.65 14.41, -12.61 14.7 M-12.61 14.7 C-12.58 14.89, -12.54 15.09, -12.5 15.33 M-12.61 14.7 C-12.58 14.88, -12.55 15.05, -12.5 15.33 M-12.5 15.33 C-12.45 15.56, -12.39 15.8, -12.36 15.95 M-12.5 15.33 C-12.46 15.52, -12.41 15.71, -12.36 15.95 M-12.36 15.95 C-12.31 16.12, -12.26 16.28, -12.19 16.56 M-12.36 15.95 C-12.3 16.16, -12.24 16.38, -12.19 16.56 M-12.19 16.56 C-12.11 16.79, -12.03 17.02, -11.99 17.15 M-12.19 16.56 C-12.14 16.69, -12.1 16.83, -11.99 17.15 M-11.99 17.15 C-11.94 17.27, -11.89 17.39, -11.76 17.73 M-11.99 17.15 C-11.93 17.3, -11.87 17.45, -11.76 17.73 M-11.76 17.73 C-11.67 17.92, -11.58 18.11, -11.5 18.29 M-11.76 17.73 C-11.69 17.87, -11.63 18.02, -11.5 18.29 M-11.5 18.29 C-11.44 18.41, -11.38 18.52, -11.22 18.84 M-11.5 18.29 C-11.43 18.43, -11.36 18.57, -11.22 18.84 M-11.22 18.84 C-11.12 19.01, -11.03 19.18, -10.91 19.38 M-11.22 18.84 C-11.16 18.95, -11.1 19.06, -10.91 19.38 M-10.91 19.38 C-10.82 19.52, -10.73 19.66, -10.58 19.9 M-10.91 19.38 C-10.79 19.57, -10.66 19.77, -10.58 19.9 M-10.58 19.9 C-10.47 20.06, -10.35 20.22, -10.23 20.4 M-10.58 19.9 C-10.49 20.03, -10.4 20.16, -10.23 20.4 M-10.23 20.4 C-10.1 20.55, -9.98 20.71, -9.85 20.88 M-10.23 20.4 C-10.11 20.54, -10 20.68, -9.85 20.88 M-9.85 20.88 C-9.73 21.01, -9.62 21.14, -9.45 21.34 M-9.85 20.88 C-9.75 20.98, -9.66 21.09, -9.45 21.34 M-9.45 21.34 C-9.29 21.51, -9.13 21.67, -9.02 21.78 M-9.45 21.34 C-9.34 21.45, -9.24 21.56, -9.02 21.78 M-9.02 21.78 C-8.93 21.88, -8.83 21.97, -8.58 22.21 M-9.02 21.78 C-8.89 21.91, -8.75 22.04, -8.58 22.21 M-8.58 22.21 C-8.42 22.35, -8.26 22.49, -8.12 22.61 M-8.58 22.21 C-8.46 22.31, -8.33 22.42, -8.12 22.61 M-8.12 22.61 C-7.99 22.7, -7.87 22.8, -7.64 22.99 M-8.12 22.61 C-7.99 22.71, -7.87 22.8, -7.64 22.99 M-7.64 22.99 C-7.5 23.08, -7.36 23.18, -7.14 23.34 M-7.64 22.99 C-7.44 23.12, -7.25 23.26, -7.14 23.34 M-7.14 23.34 C-7.02 23.42, -6.9 23.49, -6.62 23.67 M-7.14 23.34 C-6.99 23.43, -6.85 23.53, -6.62 23.67 M-6.62 23.67 C-6.46 23.77, -6.3 23.86, -6.08 23.98 M-6.62 23.67 C-6.5 23.74, -6.37 23.81, -6.08 23.98 M-6.08 23.98 C-5.93 24.06, -5.77 24.14, -5.53 24.26 M-6.08 23.98 C-5.9 24.07, -5.72 24.16, -5.53 24.26 M-5.53 24.26 C-5.39 24.33, -5.24 24.39, -4.97 24.52 M-5.53 24.26 C-5.42 24.32, -5.3 24.37, -4.97 24.52 M-4.97 24.52 C-4.82 24.58, -4.67 24.63, -4.39 24.75 M-4.97 24.52 C-4.75 24.6, -4.54 24.69, -4.39 24.75 M-4.39 24.75 C-4.21 24.81, -4.03 24.87, -3.8 24.95 M-4.39 24.75 C-4.19 24.81, -3.99 24.88, -3.8 24.95 M-3.8 24.95 C-3.61 25, -3.43 25.05, -3.19 25.12 M-3.8 24.95 C-3.57 25.01, -3.35 25.07, -3.19 25.12 M-3.19 25.12 C-3.01 25.16, -2.84 25.2, -2.57 25.26 M-3.19 25.12 C-3.05 25.15, -2.91 25.18, -2.57 25.26 M-2.57 25.26 C-2.39 25.29, -2.22 25.32, -1.94 25.37 M-2.57 25.26 C-2.4 25.29, -2.23 25.32, -1.94 25.37 M-1.94 25.37 C-1.7 25.4, -1.47 25.43, -1.3 25.45 M-1.94 25.37 C-1.77 25.39, -1.6 25.42, -1.3 25.45 M-1.3 25.45 C-1.07 25.47, -0.83 25.49, -0.66 25.5 M-1.3 25.45 C-1.15 25.47, -1 25.48, -0.66 25.5 M-0.66 25.5 C-0.5 25.51, -0.35 25.51, 0 25.52 M-0.66 25.5 C-0.49 25.51, -0.32 25.51, 0 25.52 M0 25.52 C0.14 25.52, 0.29 25.51, 0.66 25.5 M0 25.52 C0.25 25.51, 0.5 25.51, 0.66 25.5 M0.66 25.5 C0.82 25.49, 0.97 25.48, 1.3 25.45 M0.66 25.5 C0.9 25.49, 1.14 25.47, 1.3 25.45 M1.3 25.45 C1.45 25.44, 1.59 25.42, 1.94 25.37 M1.3 25.45 C1.46 25.43, 1.62 25.41, 1.94 25.37 M1.94 25.37 C2.12 25.34, 2.3 25.31, 2.57 25.26 M1.94 25.37 C2.07 25.35, 2.21 25.33, 2.57 25.26 M2.57 25.26 C2.73 25.22, 2.89 25.19, 3.19 25.12 M2.57 25.26 C2.8 25.21, 3.03 25.15, 3.19 25.12 M3.19 25.12 C3.39 25.06, 3.59 25, 3.8 24.95 M3.19 25.12 C3.39 25.06, 3.59 25.01, 3.8 24.95 M3.8 24.95 C3.98 24.88, 4.17 24.82, 4.39 24.75 M3.8 24.95 C3.95 24.89, 4.11 24.84, 4.39 24.75 M4.39 24.75 C4.56 24.68, 4.73 24.61, 4.97 24.52 M4.39 24.75 C4.56 24.68, 4.74 24.61, 4.97 24.52 M4.97 24.52 C5.14 24.44, 5.3 24.37, 5.53 24.26 M4.97 24.52 C5.11 24.46, 5.24 24.39, 5.53 24.26 M5.53 24.26 C5.73 24.16, 5.93 24.06, 6.08 23.98 M5.53 24.26 C5.7 24.18, 5.86 24.1, 6.08 23.98 M6.08 23.98 C6.19 23.92, 6.3 23.86, 6.62 23.67 M6.08 23.98 C6.2 23.91, 6.32 23.85, 6.62 23.67 M6.62 23.67 C6.75 23.59, 6.88 23.51, 7.14 23.34 M6.62 23.67 C6.75 23.59, 6.88 23.5, 7.14 23.34 M7.14 23.34 C7.3 23.22, 7.47 23.1, 7.64 22.99 M7.14 23.34 C7.28 23.24, 7.42 23.14, 7.64 22.99 M7.64 22.99 C7.81 22.85, 7.98 22.71, 8.12 22.61 M7.64 22.99 C7.8 22.86, 7.96 22.73, 8.12 22.61 M8.12 22.61 C8.27 22.48, 8.42 22.35, 8.58 22.21 M8.12 22.61 C8.28 22.47, 8.44 22.33, 8.58 22.21 M8.58 22.21 C8.68 22.11, 8.77 22.02, 9.02 21.78 M8.58 22.21 C8.71 22.09, 8.83 21.97, 9.02 21.78 M9.02 21.78 C9.14 21.66, 9.26 21.54, 9.45 21.34 M9.02 21.78 C9.14 21.66, 9.27 21.53, 9.45 21.34 M9.45 21.34 C9.54 21.23, 9.64 21.12, 9.85 20.88 M9.45 21.34 C9.54 21.24, 9.62 21.13, 9.85 20.88 M9.85 20.88 C9.93 20.77, 10.02 20.66, 10.23 20.4 M9.85 20.88 C10 20.69, 10.14 20.5, 10.23 20.4 M10.23 20.4 C10.36 20.21, 10.49 20.03, 10.58 19.9 M10.23 20.4 C10.33 20.25, 10.43 20.1, 10.58 19.9 M10.58 19.9 C10.68 19.74, 10.78 19.58, 10.91 19.38 M10.58 19.9 C10.69 19.72, 10.81 19.55, 10.91 19.38 M10.91 19.38 C10.98 19.25, 11.06 19.13, 11.22 18.84 M10.91 19.38 C10.98 19.26, 11.04 19.15, 11.22 18.84 M11.22 18.84 C11.32 18.65, 11.42 18.45, 11.5 18.29 M11.22 18.84 C11.33 18.63, 11.44 18.41, 11.5 18.29 M11.5 18.29 C11.6 18.08, 11.69 17.87, 11.76 17.73 M11.5 18.29 C11.58 18.12, 11.66 17.95, 11.76 17.73 M11.76 17.73 C11.83 17.54, 11.91 17.35, 11.99 17.15 M11.76 17.73 C11.81 17.6, 11.86 17.47, 11.99 17.15 M11.99 17.15 C12.04 17, 12.09 16.85, 12.19 16.56 M11.99 17.15 C12.04 16.99, 12.1 16.83, 12.19 16.56 M12.19 16.56 C12.23 16.39, 12.28 16.23, 12.36 15.95 M12.19 16.56 C12.24 16.38, 12.29 16.2, 12.36 15.95 M12.36 15.95 C12.39 15.81, 12.42 15.68, 12.5 15.33 M12.36 15.95 C12.39 15.81, 12.42 15.67, 12.5 15.33 M12.5 15.33 C12.54 15.12, 12.58 14.9, 12.61 14.7 M12.5 15.33 C12.53 15.18, 12.56 15.03, 12.61 14.7 M12.61 14.7 C12.64 14.49, 12.67 14.28, 12.69 14.07 M12.61 14.7 C12.63 14.53, 12.66 14.36, 12.69 14.07 M12.69 14.07 C12.7 13.93, 12.71 13.8, 12.74 13.42 M12.69 14.07 C12.71 13.85, 12.73 13.64, 12.74 13.42 M12.74 13.42 C12.75 13.18, 12.76 12.94, 12.76 12.76 M12.74 13.42 C12.75 13.23, 12.75 13.04, 12.76 12.76 M12.76 12.76 C12.76 12.6, 12.75 12.44, 12.74 12.1 M12.76 12.76 C12.75 12.51, 12.75 12.26, 12.74 12.1 M12.74 12.1 C12.72 11.85, 12.71 11.6, 12.69 11.46 M12.74 12.1 C12.73 11.87, 12.71 11.63, 12.69 11.46 M12.69 11.46 C12.67 11.25, 12.64 11.05, 12.61 10.82 M12.69 11.46 C12.67 11.3, 12.66 11.15, 12.61 10.82 M12.61 10.82 C12.57 10.58, 12.53 10.33, 12.5 10.19 M12.61 10.82 C12.57 10.57, 12.53 10.33, 12.5 10.19 M12.5 10.19 C12.47 10.05, 12.44 9.91, 12.36 9.57 M12.5 10.19 C12.45 9.99, 12.41 9.79, 12.36 9.57 M12.36 9.57 C12.32 9.42, 12.28 9.28, 12.19 8.96 M12.36 9.57 C12.32 9.43, 12.28 9.3, 12.19 8.96 M12.19 8.96 C12.14 8.82, 12.09 8.67, 11.99 8.37 M12.19 8.96 C12.13 8.81, 12.08 8.65, 11.99 8.37 M11.99 8.37 C11.9 8.17, 11.82 7.96, 11.76 7.79 M11.99 8.37 C11.91 8.17, 11.83 7.97, 11.76 7.79 M11.76 7.79 C11.66 7.57, 11.56 7.35, 11.5 7.23 M11.76 7.79 C11.69 7.64, 11.62 7.49, 11.5 7.23 M11.5 7.23 C11.44 7.11, 11.38 6.99, 11.22 6.68 M11.5 7.23 C11.44 7.11, 11.38 6.99, 11.22 6.68 M11.22 6.68 C11.11 6.49, 11 6.3, 10.91 6.14 M11.22 6.68 C11.11 6.49, 11.01 6.31, 10.91 6.14 M10.91 6.14 C10.83 6.02, 10.75 5.89, 10.58 5.63 M10.91 6.14 C10.82 6, 10.72 5.85, 10.58 5.63 M10.58 5.63 C10.46 5.46, 10.34 5.29, 10.22 5.12 M10.58 5.63 C10.47 5.48, 10.37 5.33, 10.22 5.12 M10.22 5.12 C10.1 4.96, 9.97 4.8, 9.85 4.64 M10.22 5.12 C10.15 5.03, 10.07 4.93, 9.85 4.64 M9.85 4.64 C9.74 4.52, 9.63 4.39, 9.44 4.18 M9.85 4.64 C9.72 4.49, 9.59 4.35, 9.44 4.18 M9.44 4.18 C9.31 4.03, 9.17 3.89, 9.02 3.74 M9.44 4.18 C9.35 4.09, 9.27 3.99, 9.02 3.74 M9.02 3.74 C8.86 3.58, 8.7 3.43, 8.58 3.31 M9.02 3.74 C8.93 3.65, 8.84 3.56, 8.58 3.31 M8.58 3.31 C8.43 3.18, 8.27 3.05, 8.12 2.91 M8.58 3.31 C8.42 3.17, 8.26 3.04, 8.12 2.91 M8.12 2.91 C7.95 2.78, 7.78 2.65, 7.63 2.53 M8.12 2.91 C7.95 2.79, 7.79 2.66, 7.63 2.53 M7.63 2.53 C7.44 2.4, 7.25 2.26, 7.13 2.18 M7.63 2.53 C7.51 2.45, 7.39 2.36, 7.13 2.18 M7.13 2.18 C7 2.09, 6.86 2, 6.62 1.85 M7.13 2.18 C6.99 2.09, 6.84 1.99, 6.62 1.85 M6.62 1.85 C6.5 1.78, 6.39 1.72, 6.08 1.54 M6.62 1.85 C6.45 1.75, 6.27 1.65, 6.08 1.54 M6.08 1.54 C5.95 1.47, 5.81 1.4, 5.53 1.26 M6.08 1.54 C5.96 1.48, 5.84 1.42, 5.53 1.26 M5.53 1.26 C5.38 1.19, 5.23 1.12, 4.97 1 M5.53 1.26 C5.31 1.16, 5.09 1.06, 4.97 1 M4.97 1 C4.77 0.93, 4.57 0.85, 4.39 0.77 M4.97 1 C4.78 0.93, 4.6 0.86, 4.39 0.77 M4.39 0.77 C4.2 0.71, 4.02 0.65, 3.79 0.57 M4.39 0.77 C4.22 0.72, 4.06 0.66, 3.79 0.57 M3.79 0.57 C3.61 0.52, 3.43 0.47, 3.19 0.4 M3.79 0.57 C3.6 0.52, 3.4 0.46, 3.19 0.4 M3.19 0.4 C2.96 0.35, 2.73 0.3, 2.57 0.26 M3.19 0.4 C2.95 0.35, 2.72 0.29, 2.57 0.26 M2.57 0.26 C2.33 0.22, 2.09 0.17, 1.94 0.15 M2.57 0.26 C2.32 0.21, 2.07 0.17, 1.94 0.15 M1.94 0.15 C1.79 0.13, 1.64 0.11, 1.3 0.07 M1.94 0.15 C1.76 0.12, 1.57 0.1, 1.3 0.07 M1.3 0.07 C1.07 0.05, 0.84 0.03, 0.66 0.02 M1.3 0.07 C1.12 0.05, 0.94 0.04, 0.66 0.02 M0.66 0.02 C0.42 0.01, 0.18 0, 0 0 M0.66 0.02 C0.52 0.01, 0.38 0.01, 0 0 M0 0 C0 0, 0 0, 0 0 M0 0 C0 0, 0 0, 0 0" stroke="transparent" stroke-width="1" fill="none"></path></g></g><g stroke-linecap="round"><g transform="translate(521.506552696228 194.34196662902832) rotate(0 0.014976024627685547 -9.470203399658203)" fill-rule="evenodd"><path d="M0 0 L0 0 L-0.49 -0.01 L-0.97 -0.05 L-1.44 -0.11 L-1.91 -0.2 L-2.37 -0.3 L-2.82 -0.43 L-3.26 -0.58 L-3.69 -0.75 L-4.11 -0.94 L-4.51 -1.15 L-4.91 -1.38 L-5.29 -1.63 L-5.66 -1.89 L-6.02 -2.17 L-6.36 -2.47 L-6.69 -2.78 L-7.01 -3.11 L-7.3 -3.46 L-7.58 -3.82 L-7.85 -4.19 L-8.09 -4.57 L-8.32 -4.97 L-8.53 -5.38 L-8.72 -5.8 L-8.89 -6.23 L-9.03 -6.67 L-9.16 -7.12 L-9.27 -7.58 L-9.35 -8.04 L-9.41 -8.52 L-9.44 -9 L-9.46 -9.49 L-9.44 -9.97 L-9.4 -10.45 L-9.34 -10.93 L-9.26 -11.39 L-9.15 -11.85 L-9.02 -12.3 L-8.87 -12.74 L-8.7 -13.17 L-8.51 -13.59 L-8.3 -14 L-8.08 -14.39 L-7.83 -14.78 L-7.56 -15.15 L-7.28 -15.51 L-6.98 -15.85 L-6.67 -16.18 L-6.34 -16.49 L-6 -16.79 L-5.64 -17.07 L-5.27 -17.33 L-4.88 -17.58 L-4.49 -17.81 L-4.08 -18.01 L-3.66 -18.2 L-3.23 -18.37 L-2.79 -18.52 L-2.34 -18.65 L-1.88 -18.75 L-1.41 -18.83 L-0.94 -18.89 L-0.46 -18.93 L0.03 -18.94 L0.52 -18.93 L1 -18.89 L1.47 -18.83 L1.93 -18.75 L2.39 -18.64 L2.84 -18.51 L3.28 -18.36 L3.71 -18.19 L4.13 -18 L4.53 -17.79 L4.93 -17.57 L5.31 -17.32 L5.68 -17.06 L6.04 -16.78 L6.38 -16.48 L6.71 -16.17 L7.03 -15.84 L7.32 -15.49 L7.6 -15.14 L7.87 -14.77 L8.11 -14.38 L8.34 -13.99 L8.55 -13.58 L8.74 -13.16 L8.91 -12.73 L9.06 -12.29 L9.19 -11.85 L9.29 -11.39 L9.37 -10.92 L9.44 -10.45 L9.47 -9.97 L9.49 -9.49 L9.47 -9 L9.44 -8.52 L9.38 -8.04 L9.3 -7.58 L9.19 -7.12 L9.06 -6.67 L8.92 -6.23 L8.75 -5.8 L8.56 -5.38 L8.35 -4.97 L8.12 -4.57 L7.88 -4.19 L7.61 -3.82 L7.33 -3.46 L7.04 -3.11 L6.72 -2.78 L6.39 -2.47 L6.05 -2.17 L5.69 -1.89 L5.32 -1.63 L4.94 -1.38 L4.54 -1.15 L4.14 -0.94 L3.72 -0.75 L3.29 -0.58 L2.85 -0.43 L2.4 -0.3 L1.94 -0.2 L1.47 -0.11 L1 -0.05 L0.52 -0.01 L0.03 0 L0 0" stroke="none" stroke-width="0" fill="#669df6" fill-rule="evenodd"></path><path d="M0 0 C0 0, 0 0, 0 0 M0 0 C0 0, 0 0, 0 0 M0 0 C-0.16 0, -0.31 -0.01, -0.49 -0.01 M0 0 C-0.1 0, -0.21 -0.01, -0.49 -0.01 M-0.49 -0.01 C-0.63 -0.02, -0.78 -0.04, -0.97 -0.05 M-0.49 -0.01 C-0.62 -0.02, -0.76 -0.03, -0.97 -0.05 M-0.97 -0.05 C-1.16 -0.08, -1.35 -0.1, -1.44 -0.11 M-0.97 -0.05 C-1.08 -0.07, -1.2 -0.08, -1.44 -0.11 M-1.44 -0.11 C-1.57 -0.13, -1.69 -0.16, -1.91 -0.2 M-1.44 -0.11 C-1.56 -0.13, -1.67 -0.15, -1.91 -0.2 M-1.91 -0.2 C-2.02 -0.22, -2.13 -0.25, -2.37 -0.3 M-1.91 -0.2 C-2.02 -0.22, -2.13 -0.25, -2.37 -0.3 M-2.37 -0.3 C-2.48 -0.33, -2.59 -0.37, -2.82 -0.43 M-2.37 -0.3 C-2.49 -0.34, -2.62 -0.37, -2.82 -0.43 M-2.82 -0.43 C-2.97 -0.48, -3.13 -0.54, -3.26 -0.58 M-2.82 -0.43 C-2.97 -0.48, -3.12 -0.53, -3.26 -0.58 M-3.26 -0.58 C-3.39 -0.63, -3.52 -0.68, -3.69 -0.75 M-3.26 -0.58 C-3.36 -0.62, -3.46 -0.66, -3.69 -0.75 M-3.69 -0.75 C-3.79 -0.8, -3.9 -0.85, -4.11 -0.94 M-3.69 -0.75 C-3.78 -0.79, -3.87 -0.83, -4.11 -0.94 M-4.11 -0.94 C-4.23 -1, -4.35 -1.07, -4.51 -1.15 M-4.11 -0.94 C-4.22 -1, -4.33 -1.06, -4.51 -1.15 M-4.51 -1.15 C-4.61 -1.21, -4.71 -1.26, -4.91 -1.38 M-4.51 -1.15 C-4.6 -1.2, -4.68 -1.25, -4.91 -1.38 M-4.91 -1.38 C-5.02 -1.45, -5.14 -1.53, -5.29 -1.63 M-4.91 -1.38 C-5.01 -1.44, -5.11 -1.51, -5.29 -1.63 M-5.29 -1.63 C-5.38 -1.69, -5.46 -1.75, -5.66 -1.89 M-5.29 -1.63 C-5.44 -1.73, -5.59 -1.83, -5.66 -1.89 M-5.66 -1.89 C-5.78 -1.98, -5.9 -2.07, -6.02 -2.17 M-5.66 -1.89 C-5.79 -1.99, -5.92 -2.09, -6.02 -2.17 M-6.02 -2.17 C-6.12 -2.26, -6.23 -2.35, -6.36 -2.47 M-6.02 -2.17 C-6.14 -2.27, -6.25 -2.37, -6.36 -2.47 M-6.36 -2.47 C-6.44 -2.54, -6.52 -2.62, -6.69 -2.78 M-6.36 -2.47 C-6.44 -2.55, -6.52 -2.62, -6.69 -2.78 M-6.69 -2.78 C-6.8 -2.89, -6.9 -3, -7.01 -3.11 M-6.69 -2.78 C-6.79 -2.89, -6.89 -3, -7.01 -3.11 M-7.01 -3.11 C-7.08 -3.2, -7.15 -3.28, -7.3 -3.46 M-7.01 -3.11 C-7.09 -3.21, -7.18 -3.31, -7.3 -3.46 M-7.3 -3.46 C-7.36 -3.54, -7.43 -3.61, -7.58 -3.82 M-7.3 -3.46 C-7.4 -3.57, -7.49 -3.69, -7.58 -3.82 M-7.58 -3.82 C-7.64 -3.89, -7.69 -3.96, -7.85 -4.19 M-7.58 -3.82 C-7.69 -3.96, -7.79 -4.11, -7.85 -4.19 M-7.85 -4.19 C-7.9 -4.27, -7.96 -4.36, -8.09 -4.57 M-7.85 -4.19 C-7.91 -4.28, -7.97 -4.38, -8.09 -4.57 M-8.09 -4.57 C-8.16 -4.7, -8.23 -4.82, -8.32 -4.97 M-8.09 -4.57 C-8.17 -4.71, -8.25 -4.84, -8.32 -4.97 M-8.32 -4.97 C-8.37 -5.06, -8.41 -5.15, -8.53 -5.38 M-8.32 -4.97 C-8.38 -5.08, -8.43 -5.19, -8.53 -5.38 M-8.53 -5.38 C-8.6 -5.54, -8.68 -5.71, -8.72 -5.8 M-8.53 -5.38 C-8.57 -5.48, -8.62 -5.58, -8.72 -5.8 M-8.72 -5.8 C-8.76 -5.91, -8.81 -6.03, -8.89 -6.23 M-8.72 -5.8 C-8.77 -5.93, -8.82 -6.07, -8.89 -6.23 M-8.89 -6.23 C-8.92 -6.34, -8.96 -6.45, -9.03 -6.67 M-8.89 -6.23 C-8.93 -6.36, -8.97 -6.48, -9.03 -6.67 M-9.03 -6.67 C-9.06 -6.77, -9.09 -6.87, -9.16 -7.12 M-9.03 -6.67 C-9.08 -6.84, -9.13 -7, -9.16 -7.12 M-9.16 -7.12 C-9.19 -7.25, -9.22 -7.39, -9.27 -7.58 M-9.16 -7.12 C-9.18 -7.21, -9.21 -7.31, -9.27 -7.58 M-9.27 -7.58 C-9.29 -7.73, -9.32 -7.89, -9.35 -8.04 M-9.27 -7.58 C-9.3 -7.75, -9.33 -7.92, -9.35 -8.04 M-9.35 -8.04 C-9.37 -8.19, -9.39 -8.34, -9.41 -8.52 M-9.35 -8.04 C-9.36 -8.14, -9.37 -8.24, -9.41 -8.52 M-9.41 -8.52 C-9.42 -8.64, -9.43 -8.75, -9.44 -9 M-9.41 -8.52 C-9.42 -8.67, -9.43 -8.83, -9.44 -9 M-9.44 -9 C-9.45 -9.15, -9.45 -9.3, -9.46 -9.49 M-9.44 -9 C-9.45 -9.11, -9.45 -9.21, -9.46 -9.49 M-9.46 -9.49 C-9.45 -9.67, -9.44 -9.86, -9.44 -9.97 M-9.46 -9.49 C-9.45 -9.67, -9.45 -9.85, -9.44 -9.97 M-9.44 -9.97 C-9.43 -10.09, -9.42 -10.21, -9.4 -10.45 M-9.44 -9.97 C-9.43 -10.1, -9.42 -10.24, -9.4 -10.45 M-9.4 -10.45 C-9.38 -10.64, -9.36 -10.83, -9.34 -10.93 M-9.4 -10.45 C-9.38 -10.61, -9.36 -10.77, -9.34 -10.93 M-9.34 -10.93 C-9.32 -11.07, -9.29 -11.21, -9.26 -11.39 M-9.34 -10.93 C-9.32 -11.07, -9.29 -11.21, -9.26 -11.39 M-9.26 -11.39 C-9.23 -11.53, -9.2 -11.66, -9.15 -11.85 M-9.26 -11.39 C-9.22 -11.56, -9.18 -11.72, -9.15 -11.85 M-9.15 -11.85 C-9.12 -11.97, -9.08 -12.09, -9.02 -12.3 M-9.15 -11.85 C-9.11 -12.01, -9.06 -12.17, -9.02 -12.3 M-9.02 -12.3 C-8.98 -12.43, -8.94 -12.56, -8.87 -12.74 M-9.02 -12.3 C-8.98 -12.43, -8.94 -12.55, -8.87 -12.74 M-8.87 -12.74 C-8.83 -12.87, -8.78 -12.99, -8.7 -13.17 M-8.87 -12.74 C-8.81 -12.9, -8.75 -13.06, -8.7 -13.17 M-8.7 -13.17 C-8.67 -13.26, -8.63 -13.34, -8.51 -13.59 M-8.7 -13.17 C-8.65 -13.29, -8.6 -13.4, -8.51 -13.59 M-8.51 -13.59 C-8.45 -13.73, -8.38 -13.86, -8.3 -14 M-8.51 -13.59 C-8.47 -13.68, -8.43 -13.76, -8.3 -14 M-8.3 -14 C-8.25 -14.09, -8.19 -14.19, -8.08 -14.39 M-8.3 -14 C-8.22 -14.15, -8.13 -14.3, -8.08 -14.39 M-8.08 -14.39 C-7.99 -14.53, -7.91 -14.66, -7.83 -14.78 M-8.08 -14.39 C-8.02 -14.49, -7.95 -14.58, -7.83 -14.78 M-7.83 -14.78 C-7.78 -14.85, -7.72 -14.93, -7.56 -15.15 M-7.83 -14.78 C-7.73 -14.92, -7.63 -15.06, -7.56 -15.15 M-7.56 -15.15 C-7.49 -15.25, -7.41 -15.35, -7.28 -15.51 M-7.56 -15.15 C-7.47 -15.27, -7.38 -15.39, -7.28 -15.51 M-7.28 -15.51 C-7.2 -15.6, -7.12 -15.69, -6.98 -15.85 M-7.28 -15.51 C-7.19 -15.62, -7.09 -15.73, -6.98 -15.85 M-6.98 -15.85 C-6.9 -15.94, -6.82 -16.02, -6.67 -16.18 M-6.98 -15.85 C-6.9 -15.93, -6.82 -16.02, -6.67 -16.18 M-6.67 -16.18 C-6.59 -16.25, -6.51 -16.33, -6.34 -16.49 M-6.67 -16.18 C-6.6 -16.24, -6.53 -16.31, -6.34 -16.49 M-6.34 -16.49 C-6.26 -16.56, -6.18 -16.63, -6 -16.79 M-6.34 -16.49 C-6.24 -16.58, -6.14 -16.66, -6 -16.79 M-6 -16.79 C-5.89 -16.87, -5.79 -16.95, -5.64 -17.07 M-6 -16.79 C-5.89 -16.88, -5.78 -16.96, -5.64 -17.07 M-5.64 -17.07 C-5.52 -17.16, -5.39 -17.24, -5.27 -17.33 M-5.64 -17.07 C-5.56 -17.13, -5.47 -17.19, -5.27 -17.33 M-5.27 -17.33 C-5.12 -17.43, -4.97 -17.52, -4.88 -17.58 M-5.27 -17.33 C-5.18 -17.39, -5.1 -17.44, -4.88 -17.58 M-4.88 -17.58 C-4.78 -17.64, -4.68 -17.7, -4.49 -17.81 M-4.88 -17.58 C-4.74 -17.66, -4.61 -17.74, -4.49 -17.81 M-4.49 -17.81 C-4.36 -17.87, -4.24 -17.93, -4.08 -18.01 M-4.49 -17.81 C-4.39 -17.85, -4.3 -17.9, -4.08 -18.01 M-4.08 -18.01 C-3.93 -18.08, -3.79 -18.14, -3.66 -18.2 M-4.08 -18.01 C-3.96 -18.07, -3.85 -18.12, -3.66 -18.2 M-3.66 -18.2 C-3.57 -18.24, -3.48 -18.27, -3.23 -18.37 M-3.66 -18.2 C-3.51 -18.26, -3.36 -18.32, -3.23 -18.37 M-3.23 -18.37 C-3.1 -18.41, -2.98 -18.46, -2.79 -18.52 M-3.23 -18.37 C-3.1 -18.41, -2.97 -18.46, -2.79 -18.52 M-2.79 -18.52 C-2.68 -18.55, -2.57 -18.58, -2.34 -18.65 M-2.79 -18.52 C-2.66 -18.56, -2.53 -18.59, -2.34 -18.65 M-2.34 -18.65 C-2.16 -18.69, -1.98 -18.73, -1.88 -18.75 M-2.34 -18.65 C-2.24 -18.67, -2.14 -18.69, -1.88 -18.75 M-1.88 -18.75 C-1.71 -18.78, -1.54 -18.81, -1.41 -18.83 M-1.88 -18.75 C-1.76 -18.77, -1.64 -18.79, -1.41 -18.83 M-1.41 -18.83 C-1.25 -18.85, -1.08 -18.88, -0.94 -18.89 M-1.41 -18.83 C-1.23 -18.86, -1.06 -18.88, -0.94 -18.89 M-0.94 -18.89 C-0.79 -18.9, -0.63 -18.92, -0.46 -18.93 M-0.94 -18.89 C-0.76 -18.91, -0.57 -18.92, -0.46 -18.93 M-0.46 -18.93 C-0.33 -18.93, -0.21 -18.93, 0.03 -18.94 M-0.46 -18.93 C-0.27 -18.93, -0.08 -18.94, 0.03 -18.94 M0.03 -18.94 C0.14 -18.94, 0.25 -18.93, 0.52 -18.93 M0.03 -18.94 C0.17 -18.94, 0.31 -18.93, 0.52 -18.93 M0.52 -18.93 C0.7 -18.91, 0.89 -18.9, 1 -18.89 M0.52 -18.93 C0.7 -18.91, 0.89 -18.9, 1 -18.89 M1 -18.89 C1.11 -18.88, 1.22 -18.86, 1.47 -18.83 M1 -18.89 C1.14 -18.87, 1.28 -18.85, 1.47 -18.83 M1.47 -18.83 C1.57 -18.81, 1.68 -18.79, 1.93 -18.75 M1.47 -18.83 C1.57 -18.81, 1.66 -18.79, 1.93 -18.75 M1.93 -18.75 C2.05 -18.72, 2.17 -18.69, 2.39 -18.64 M1.93 -18.75 C2.06 -18.72, 2.19 -18.69, 2.39 -18.64 M2.39 -18.64 C2.5 -18.61, 2.61 -18.58, 2.84 -18.51 M2.39 -18.64 C2.57 -18.59, 2.74 -18.54, 2.84 -18.51 M2.84 -18.51 C2.94 -18.48, 3.03 -18.44, 3.28 -18.36 M2.84 -18.51 C3 -18.46, 3.15 -18.4, 3.28 -18.36 M3.28 -18.36 C3.41 -18.31, 3.54 -18.26, 3.71 -18.19 M3.28 -18.36 C3.45 -18.29, 3.62 -18.23, 3.71 -18.19 M3.71 -18.19 C3.8 -18.15, 3.9 -18.11, 4.13 -18 M3.71 -18.19 C3.87 -18.12, 4.04 -18.04, 4.13 -18 M4.13 -18 C4.23 -17.95, 4.34 -17.89, 4.53 -17.79 M4.13 -18 C4.28 -17.93, 4.43 -17.85, 4.53 -17.79 M4.53 -17.79 C4.69 -17.71, 4.84 -17.62, 4.93 -17.57 M4.53 -17.79 C4.67 -17.72, 4.8 -17.64, 4.93 -17.57 M4.93 -17.57 C5.07 -17.47, 5.22 -17.38, 5.31 -17.32 M4.93 -17.57 C5.07 -17.47, 5.22 -17.38, 5.31 -17.32 M5.31 -17.32 C5.46 -17.22, 5.6 -17.11, 5.68 -17.06 M5.31 -17.32 C5.41 -17.25, 5.51 -17.18, 5.68 -17.06 M5.68 -17.06 C5.78 -16.98, 5.89 -16.9, 6.04 -16.78 M5.68 -17.06 C5.82 -16.95, 5.96 -16.84, 6.04 -16.78 M6.04 -16.78 C6.16 -16.67, 6.27 -16.57, 6.38 -16.48 M6.04 -16.78 C6.16 -16.67, 6.28 -16.57, 6.38 -16.48 M6.38 -16.48 C6.46 -16.41, 6.53 -16.34, 6.71 -16.17 M6.38 -16.48 C6.47 -16.39, 6.56 -16.31, 6.71 -16.17 M6.71 -16.17 C6.81 -16.06, 6.91 -15.96, 7.03 -15.84 M6.71 -16.17 C6.79 -16.08, 6.87 -16, 7.03 -15.84 M7.03 -15.84 C7.1 -15.76, 7.17 -15.67, 7.32 -15.49 M7.03 -15.84 C7.09 -15.76, 7.15 -15.69, 7.32 -15.49 M7.32 -15.49 C7.38 -15.42, 7.44 -15.35, 7.6 -15.14 M7.32 -15.49 C7.43 -15.36, 7.53 -15.23, 7.6 -15.14 M7.6 -15.14 C7.69 -15.01, 7.79 -14.88, 7.87 -14.77 M7.6 -15.14 C7.68 -15.02, 7.76 -14.91, 7.87 -14.77 M7.87 -14.77 C7.93 -14.66, 8 -14.56, 8.11 -14.38 M7.87 -14.77 C7.96 -14.61, 8.06 -14.46, 8.11 -14.38 M8.11 -14.38 C8.2 -14.24, 8.28 -14.09, 8.34 -13.99 M8.11 -14.38 C8.19 -14.25, 8.26 -14.12, 8.34 -13.99 M8.34 -13.99 C8.42 -13.83, 8.5 -13.67, 8.55 -13.58 M8.34 -13.99 C8.41 -13.86, 8.48 -13.73, 8.55 -13.58 M8.55 -13.58 C8.61 -13.44, 8.67 -13.31, 8.74 -13.16 M8.55 -13.58 C8.62 -13.41, 8.7 -13.25, 8.74 -13.16 M8.74 -13.16 C8.78 -13.07, 8.81 -12.98, 8.91 -12.73 M8.74 -13.16 C8.78 -13.06, 8.82 -12.95, 8.91 -12.73 M8.91 -12.73 C8.94 -12.63, 8.98 -12.54, 9.06 -12.29 M8.91 -12.73 C8.95 -12.6, 9 -12.46, 9.06 -12.29 M9.06 -12.29 C9.08 -12.2, 9.11 -12.11, 9.19 -11.85 M9.06 -12.29 C9.11 -12.12, 9.16 -11.95, 9.19 -11.85 M9.19 -11.85 C9.21 -11.73, 9.24 -11.61, 9.29 -11.39 M9.19 -11.85 C9.22 -11.68, 9.26 -11.51, 9.29 -11.39 M9.29 -11.39 C9.31 -11.29, 9.33 -11.18, 9.37 -10.92 M9.29 -11.39 C9.31 -11.27, 9.33 -11.15, 9.37 -10.92 M9.37 -10.92 C9.39 -10.81, 9.4 -10.7, 9.44 -10.45 M9.37 -10.92 C9.39 -10.82, 9.4 -10.72, 9.44 -10.45 M9.44 -10.45 C9.45 -10.31, 9.46 -10.18, 9.47 -9.97 M9.44 -10.45 C9.45 -10.32, 9.46 -10.19, 9.47 -9.97 M9.47 -9.97 C9.48 -9.81, 9.48 -9.65, 9.49 -9.49 M9.47 -9.97 C9.48 -9.8, 9.48 -9.63, 9.49 -9.49 M9.49 -9.49 C9.48 -9.37, 9.48 -9.25, 9.47 -9 M9.49 -9.49 C9.48 -9.31, 9.48 -9.13, 9.47 -9 M9.47 -9 C9.46 -8.83, 9.45 -8.67, 9.44 -8.52 M9.47 -9 C9.47 -8.89, 9.46 -8.78, 9.44 -8.52 M9.44 -8.52 C9.42 -8.36, 9.4 -8.21, 9.38 -8.04 M9.44 -8.52 C9.42 -8.34, 9.39 -8.17, 9.38 -8.04 M9.38 -8.04 C9.36 -7.93, 9.34 -7.82, 9.3 -7.58 M9.38 -8.04 C9.35 -7.87, 9.32 -7.7, 9.3 -7.58 M9.3 -7.58 C9.26 -7.41, 9.22 -7.25, 9.19 -7.12 M9.3 -7.58 C9.27 -7.48, 9.25 -7.38, 9.19 -7.12 M9.19 -7.12 C9.14 -6.94, 9.09 -6.77, 9.06 -6.67 M9.19 -7.12 C9.16 -7.02, 9.14 -6.93, 9.06 -6.67 M9.06 -6.67 C9.01 -6.51, 8.96 -6.36, 8.92 -6.23 M9.06 -6.67 C9.01 -6.51, 8.96 -6.34, 8.92 -6.23 M8.92 -6.23 C8.86 -6.07, 8.8 -5.92, 8.75 -5.8 M8.92 -6.23 C8.86 -6.09, 8.81 -5.95, 8.75 -5.8 M8.75 -5.8 C8.69 -5.66, 8.63 -5.53, 8.56 -5.38 M8.75 -5.8 C8.68 -5.64, 8.61 -5.49, 8.56 -5.38 M8.56 -5.38 C8.49 -5.25, 8.43 -5.12, 8.35 -4.97 M8.56 -5.38 C8.49 -5.24, 8.41 -5.09, 8.35 -4.97 M8.35 -4.97 C8.29 -4.86, 8.23 -4.75, 8.12 -4.57 M8.35 -4.97 C8.29 -4.86, 8.22 -4.74, 8.12 -4.57 M8.12 -4.57 C8.03 -4.42, 7.93 -4.27, 7.88 -4.19 M8.12 -4.57 C8.06 -4.47, 8 -4.38, 7.88 -4.19 M7.88 -4.19 C7.82 -4.11, 7.77 -4.04, 7.61 -3.82 M7.88 -4.19 C7.81 -4.09, 7.74 -3.99, 7.61 -3.82 M7.61 -3.82 C7.52 -3.69, 7.42 -3.57, 7.33 -3.46 M7.61 -3.82 C7.53 -3.71, 7.44 -3.6, 7.33 -3.46 M7.33 -3.46 C7.24 -3.35, 7.15 -3.25, 7.04 -3.11 M7.33 -3.46 C7.27 -3.39, 7.21 -3.32, 7.04 -3.11 M7.04 -3.11 C6.93 -3.01, 6.83 -2.9, 6.72 -2.78 M7.04 -3.11 C6.95 -3.02, 6.86 -2.93, 6.72 -2.78 M6.72 -2.78 C6.6 -2.67, 6.48 -2.55, 6.39 -2.47 M6.72 -2.78 C6.64 -2.7, 6.55 -2.62, 6.39 -2.47 M6.39 -2.47 C6.31 -2.4, 6.23 -2.32, 6.05 -2.17 M6.39 -2.47 C6.3 -2.39, 6.21 -2.31, 6.05 -2.17 M6.05 -2.17 C5.92 -2.07, 5.79 -1.97, 5.69 -1.89 M6.05 -2.17 C5.94 -2.08, 5.82 -1.99, 5.69 -1.89 M5.69 -1.89 C5.6 -1.83, 5.51 -1.76, 5.32 -1.63 M5.69 -1.89 C5.61 -1.83, 5.52 -1.77, 5.32 -1.63 M5.32 -1.63 C5.22 -1.56, 5.11 -1.49, 4.94 -1.38 M5.32 -1.63 C5.17 -1.53, 5.02 -1.43, 4.94 -1.38 M4.94 -1.38 C4.84 -1.32, 4.75 -1.27, 4.54 -1.15 M4.94 -1.38 C4.83 -1.31, 4.71 -1.25, 4.54 -1.15 M4.54 -1.15 C4.43 -1.09, 4.33 -1.04, 4.14 -0.94 M4.54 -1.15 C4.4 -1.08, 4.26 -1, 4.14 -0.94 M4.14 -0.94 C3.99 -0.87, 3.84 -0.81, 3.72 -0.75 M4.14 -0.94 C4.04 -0.9, 3.95 -0.86, 3.72 -0.75 M3.72 -0.75 C3.59 -0.7, 3.46 -0.65, 3.29 -0.58 M3.72 -0.75 C3.63 -0.72, 3.54 -0.68, 3.29 -0.58 M3.29 -0.58 C3.17 -0.54, 3.05 -0.5, 2.85 -0.43 M3.29 -0.58 C3.13 -0.53, 2.98 -0.48, 2.85 -0.43 M2.85 -0.43 C2.7 -0.39, 2.56 -0.35, 2.4 -0.3 M2.85 -0.43 C2.72 -0.4, 2.6 -0.36, 2.4 -0.3 M2.4 -0.3 C2.25 -0.27, 2.11 -0.23, 1.94 -0.2 M2.4 -0.3 C2.27 -0.27, 2.15 -0.24, 1.94 -0.2 M1.94 -0.2 C1.8 -0.17, 1.67 -0.15, 1.47 -0.11 M1.94 -0.2 C1.77 -0.17, 1.6 -0.14, 1.47 -0.11 M1.47 -0.11 C1.29 -0.09, 1.11 -0.07, 1 -0.05 M1.47 -0.11 C1.32 -0.09, 1.17 -0.07, 1 -0.05 M1 -0.05 C0.83 -0.04, 0.66 -0.02, 0.52 -0.01 M1 -0.05 C0.81 -0.04, 0.62 -0.02, 0.52 -0.01 M0.52 -0.01 C0.35 -0.01, 0.18 0, 0.03 0 M0.52 -0.01 C0.36 -0.01, 0.21 0, 0.03 0 M0.03 0 C0.02 0, 0.02 0, 0 0 M0.03 0 C0.02 0, 0.01 0, 0 0 M0 0 C0 0, 0 0, 0 0 M0 0 C0 0, 0 0, 0 0" stroke="transparent" stroke-width="1" fill="none"></path></g></g><g stroke-linecap="round"><g transform="translate(521.506552696228 194.34196662902832) rotate(0 0.014976024627685547 -9.470203399658203)" fill-rule="evenodd"><path d="M0 0 L0 0 L-0.49 -0.01 L-0.97 -0.05 L-1.44 -0.11 L-1.91 -0.2 L-2.37 -0.3 L-2.82 -0.43 L-3.26 -0.58 L-3.69 -0.75 L-4.11 -0.94 L-4.51 -1.15 L-4.91 -1.38 L-5.29 -1.63 L-5.66 -1.89 L-6.02 -2.17 L-6.36 -2.47 L-6.69 -2.78 L-7.01 -3.11 L-7.3 -3.46 L-7.58 -3.82 L-7.85 -4.19 L-8.09 -4.57 L-8.32 -4.97 L-8.53 -5.38 L-8.72 -5.8 L-8.89 -6.23 L-9.03 -6.67 L-9.16 -7.12 L-9.27 -7.58 L-9.35 -8.04 L-9.41 -8.52 L-9.44 -9 L-9.46 -9.49 L-9.44 -9.97 L-9.4 -10.45 L-9.34 -10.93 L-9.26 -11.39 L-9.15 -11.85 L-9.02 -12.3 L-8.87 -12.74 L-8.7 -13.17 L-8.51 -13.59 L-8.3 -14 L-8.08 -14.39 L-7.83 -14.78 L-7.56 -15.15 L-7.28 -15.51 L-6.98 -15.85 L-6.67 -16.18 L-6.34 -16.49 L-6 -16.79 L-5.64 -17.07 L-5.27 -17.33 L-4.88 -17.58 L-4.49 -17.81 L-4.08 -18.01 L-3.66 -18.2 L-3.23 -18.37 L-2.79 -18.52 L-2.34 -18.65 L-1.88 -18.75 L-1.41 -18.83 L-0.94 -18.89 L-0.46 -18.93 L0.03 -18.94 L0.52 -18.93 L1 -18.89 L1.47 -18.83 L1.93 -18.75 L2.39 -18.64 L2.84 -18.51 L3.28 -18.36 L3.71 -18.19 L4.13 -18 L4.53 -17.79 L4.93 -17.57 L5.31 -17.32 L5.68 -17.06 L6.04 -16.78 L6.38 -16.48 L6.71 -16.17 L7.03 -15.84 L7.32 -15.49 L7.6 -15.14 L7.87 -14.77 L8.11 -14.38 L8.34 -13.99 L8.55 -13.58 L8.74 -13.16 L8.91 -12.73 L9.06 -12.29 L9.19 -11.85 L9.29 -11.39 L9.37 -10.92 L9.44 -10.45 L9.47 -9.97 L9.49 -9.49 L9.47 -9 L9.44 -8.52 L9.38 -8.04 L9.3 -7.58 L9.19 -7.12 L9.06 -6.67 L8.92 -6.23 L8.75 -5.8 L8.56 -5.38 L8.35 -4.97 L8.12 -4.57 L7.88 -4.19 L7.61 -3.82 L7.33 -3.46 L7.04 -3.11 L6.72 -2.78 L6.39 -2.47 L6.05 -2.17 L5.69 -1.89 L5.32 -1.63 L4.94 -1.38 L4.54 -1.15 L4.14 -0.94 L3.72 -0.75 L3.29 -0.58 L2.85 -0.43 L2.4 -0.3 L1.94 -0.2 L1.47 -0.11 L1 -0.05 L0.52 -0.01 L0.03 0 L0 0" stroke="none" stroke-width="0" fill="#fff" fill-rule="evenodd"></path><path d="M0 0 C0 0, 0 0, 0 0 M0 0 C0 0, 0 0, 0 0 M0 0 C-0.19 -0.01, -0.38 -0.01, -0.49 -0.01 M0 0 C-0.15 0, -0.31 -0.01, -0.49 -0.01 M-0.49 -0.01 C-0.6 -0.02, -0.72 -0.03, -0.97 -0.05 M-0.49 -0.01 C-0.59 -0.02, -0.69 -0.03, -0.97 -0.05 M-0.97 -0.05 C-1.12 -0.07, -1.27 -0.09, -1.44 -0.11 M-0.97 -0.05 C-1.14 -0.07, -1.3 -0.09, -1.44 -0.11 M-1.44 -0.11 C-1.61 -0.14, -1.78 -0.17, -1.91 -0.2 M-1.44 -0.11 C-1.54 -0.13, -1.63 -0.15, -1.91 -0.2 M-1.91 -0.2 C-2.09 -0.24, -2.26 -0.28, -2.37 -0.3 M-1.91 -0.2 C-2.07 -0.23, -2.23 -0.27, -2.37 -0.3 M-2.37 -0.3 C-2.53 -0.35, -2.7 -0.4, -2.82 -0.43 M-2.37 -0.3 C-2.47 -0.33, -2.58 -0.36, -2.82 -0.43 M-2.82 -0.43 C-2.94 -0.47, -3.07 -0.52, -3.26 -0.58 M-2.82 -0.43 C-2.97 -0.48, -3.13 -0.54, -3.26 -0.58 M-3.26 -0.58 C-3.42 -0.64, -3.58 -0.71, -3.69 -0.75 M-3.26 -0.58 C-3.39 -0.63, -3.53 -0.69, -3.69 -0.75 M-3.69 -0.75 C-3.78 -0.79, -3.87 -0.83, -4.11 -0.94 M-3.69 -0.75 C-3.79 -0.8, -3.88 -0.84, -4.11 -0.94 M-4.11 -0.94 C-4.26 -1.02, -4.42 -1.1, -4.51 -1.15 M-4.11 -0.94 C-4.21 -0.99, -4.31 -1.04, -4.51 -1.15 M-4.51 -1.15 C-4.64 -1.22, -4.76 -1.29, -4.91 -1.38 M-4.51 -1.15 C-4.61 -1.21, -4.7 -1.26, -4.91 -1.38 M-4.91 -1.38 C-5.03 -1.46, -5.16 -1.54, -5.29 -1.63 M-4.91 -1.38 C-4.99 -1.43, -5.07 -1.49, -5.29 -1.63 M-5.29 -1.63 C-5.43 -1.72, -5.56 -1.82, -5.66 -1.89 M-5.29 -1.63 C-5.37 -1.68, -5.45 -1.73, -5.66 -1.89 M-5.66 -1.89 C-5.81 -2, -5.95 -2.12, -6.02 -2.17 M-5.66 -1.89 C-5.74 -1.95, -5.82 -2.01, -6.02 -2.17 M-6.02 -2.17 C-6.13 -2.26, -6.24 -2.36, -6.36 -2.47 M-6.02 -2.17 C-6.15 -2.28, -6.28 -2.39, -6.36 -2.47 M-6.36 -2.47 C-6.48 -2.58, -6.59 -2.69, -6.69 -2.78 M-6.36 -2.47 C-6.44 -2.54, -6.52 -2.62, -6.69 -2.78 M-6.69 -2.78 C-6.81 -2.91, -6.93 -3.04, -7.01 -3.11 M-6.69 -2.78 C-6.81 -2.9, -6.92 -3.03, -7.01 -3.11 M-7.01 -3.11 C-7.12 -3.25, -7.24 -3.39, -7.3 -3.46 M-7.01 -3.11 C-7.08 -3.2, -7.15 -3.28, -7.3 -3.46 M-7.3 -3.46 C-7.39 -3.57, -7.48 -3.69, -7.58 -3.82 M-7.3 -3.46 C-7.36 -3.53, -7.42 -3.61, -7.58 -3.82 M-7.58 -3.82 C-7.66 -3.92, -7.74 -4.03, -7.85 -4.19 M-7.58 -3.82 C-7.64 -3.9, -7.7 -3.98, -7.85 -4.19 M-7.85 -4.19 C-7.93 -4.32, -8.02 -4.46, -8.09 -4.57 M-7.85 -4.19 C-7.93 -4.32, -8.01 -4.44, -8.09 -4.57 M-8.09 -4.57 C-8.16 -4.68, -8.22 -4.8, -8.32 -4.97 M-8.09 -4.57 C-8.17 -4.7, -8.24 -4.82, -8.32 -4.97 M-8.32 -4.97 C-8.37 -5.07, -8.42 -5.17, -8.53 -5.38 M-8.32 -4.97 C-8.39 -5.11, -8.46 -5.24, -8.53 -5.38 M-8.53 -5.38 C-8.59 -5.51, -8.65 -5.64, -8.72 -5.8 M-8.53 -5.38 C-8.59 -5.5, -8.64 -5.63, -8.72 -5.8 M-8.72 -5.8 C-8.76 -5.91, -8.8 -6.02, -8.89 -6.23 M-8.72 -5.8 C-8.76 -5.89, -8.79 -5.99, -8.89 -6.23 M-8.89 -6.23 C-8.92 -6.34, -8.96 -6.45, -9.03 -6.67 M-8.89 -6.23 C-8.93 -6.37, -8.98 -6.51, -9.03 -6.67 M-9.03 -6.67 C-9.08 -6.82, -9.12 -6.96, -9.16 -7.12 M-9.03 -6.67 C-9.08 -6.85, -9.14 -7.02, -9.16 -7.12 M-9.16 -7.12 C-9.19 -7.23, -9.21 -7.35, -9.27 -7.58 M-9.16 -7.12 C-9.2 -7.27, -9.23 -7.42, -9.27 -7.58 M-9.27 -7.58 C-9.3 -7.74, -9.32 -7.9, -9.35 -8.04 M-9.27 -7.58 C-9.29 -7.69, -9.31 -7.81, -9.35 -8.04 M-9.35 -8.04 C-9.37 -8.23, -9.4 -8.42, -9.41 -8.52 M-9.35 -8.04 C-9.36 -8.16, -9.38 -8.28, -9.41 -8.52 M-9.41 -8.52 C-9.42 -8.65, -9.43 -8.79, -9.44 -9 M-9.41 -8.52 C-9.42 -8.69, -9.43 -8.87, -9.44 -9 M-9.44 -9 C-9.45 -9.12, -9.45 -9.25, -9.46 -9.49 M-9.44 -9 C-9.45 -9.11, -9.45 -9.23, -9.46 -9.49 M-9.46 -9.49 C-9.45 -9.59, -9.45 -9.69, -9.44 -9.97 M-9.46 -9.49 C-9.45 -9.64, -9.45 -9.8, -9.44 -9.97 M-9.44 -9.97 C-9.43 -10.13, -9.42 -10.28, -9.4 -10.45 M-9.44 -9.97 C-9.43 -10.07, -9.43 -10.17, -9.4 -10.45 M-9.4 -10.45 C-9.38 -10.61, -9.36 -10.76, -9.34 -10.93 M-9.4 -10.45 C-9.39 -10.6, -9.37 -10.74, -9.34 -10.93 M-9.34 -10.93 C-9.31 -11.1, -9.28 -11.28, -9.26 -11.39 M-9.34 -10.93 C-9.32 -11.05, -9.3 -11.18, -9.26 -11.39 M-9.26 -11.39 C-9.23 -11.54, -9.19 -11.69, -9.15 -11.85 M-9.26 -11.39 C-9.23 -11.52, -9.2 -11.64, -9.15 -11.85 M-9.15 -11.85 C-9.11 -12, -9.07 -12.15, -9.02 -12.3 M-9.15 -11.85 C-9.11 -12.01, -9.06 -12.17, -9.02 -12.3 M-9.02 -12.3 C-8.97 -12.47, -8.91 -12.64, -8.87 -12.74 M-9.02 -12.3 C-8.97 -12.47, -8.91 -12.64, -8.87 -12.74 M-8.87 -12.74 C-8.81 -12.9, -8.75 -13.05, -8.7 -13.17 M-8.87 -12.74 C-8.81 -12.9, -8.75 -13.05, -8.7 -13.17 M-8.7 -13.17 C-8.66 -13.27, -8.61 -13.37, -8.51 -13.59 M-8.7 -13.17 C-8.63 -13.34, -8.55 -13.5, -8.51 -13.59 M-8.51 -13.59 C-8.47 -13.67, -8.43 -13.76, -8.3 -14 M-8.51 -13.59 C-8.43 -13.75, -8.35 -13.92, -8.3 -14 M-8.3 -14 C-8.24 -14.11, -8.17 -14.23, -8.08 -14.39 M-8.3 -14 C-8.25 -14.1, -8.19 -14.2, -8.08 -14.39 M-8.08 -14.39 C-8.01 -14.49, -7.95 -14.59, -7.83 -14.78 M-8.08 -14.39 C-7.99 -14.53, -7.9 -14.67, -7.83 -14.78 M-7.83 -14.78 C-7.76 -14.87, -7.7 -14.97, -7.56 -15.15 M-7.83 -14.78 C-7.75 -14.9, -7.66 -15.01, -7.56 -15.15 M-7.56 -15.15 C-7.49 -15.24, -7.42 -15.33, -7.28 -15.51 M-7.56 -15.15 C-7.47 -15.27, -7.38 -15.38, -7.28 -15.51 M-7.28 -15.51 C-7.18 -15.63, -7.07 -15.75, -6.98 -15.85 M-7.28 -15.51 C-7.19 -15.61, -7.1 -15.71, -6.98 -15.85 M-6.98 -15.85 C-6.92 -15.92, -6.85 -15.99, -6.67 -16.18 M-6.98 -15.85 C-6.86 -15.98, -6.74 -16.11, -6.67 -16.18 M-6.67 -16.18 C-6.56 -16.28, -6.46 -16.38, -6.34 -16.49 M-6.67 -16.18 C-6.56 -16.29, -6.44 -16.4, -6.34 -16.49 M-6.34 -16.49 C-6.25 -16.57, -6.16 -16.65, -6 -16.79 M-6.34 -16.49 C-6.26 -16.56, -6.18 -16.63, -6 -16.79 M-6 -16.79 C-5.85 -16.9, -5.71 -17.01, -5.64 -17.07 M-6 -16.79 C-5.86 -16.89, -5.73 -17, -5.64 -17.07 M-5.64 -17.07 C-5.54 -17.14, -5.44 -17.21, -5.27 -17.33 M-5.64 -17.07 C-5.52 -17.15, -5.41 -17.23, -5.27 -17.33 M-5.27 -17.33 C-5.14 -17.41, -5.02 -17.49, -4.88 -17.58 M-5.27 -17.33 C-5.15 -17.41, -5.03 -17.48, -4.88 -17.58 M-4.88 -17.58 C-4.74 -17.66, -4.6 -17.74, -4.49 -17.81 M-4.88 -17.58 C-4.77 -17.65, -4.65 -17.71, -4.49 -17.81 M-4.49 -17.81 C-4.34 -17.88, -4.2 -17.95, -4.08 -18.01 M-4.49 -17.81 C-4.39 -17.86, -4.29 -17.91, -4.08 -18.01 M-4.08 -18.01 C-3.92 -18.09, -3.76 -18.16, -3.66 -18.2 M-4.08 -18.01 C-3.97 -18.06, -3.87 -18.11, -3.66 -18.2 M-3.66 -18.2 C-3.56 -18.24, -3.46 -18.28, -3.23 -18.37 M-3.66 -18.2 C-3.53 -18.25, -3.4 -18.31, -3.23 -18.37 M-3.23 -18.37 C-3.09 -18.42, -2.96 -18.46, -2.79 -18.52 M-3.23 -18.37 C-3.13 -18.4, -3.04 -18.44, -2.79 -18.52 M-2.79 -18.52 C-2.68 -18.55, -2.58 -18.58, -2.34 -18.65 M-2.79 -18.52 C-2.62 -18.57, -2.45 -18.61, -2.34 -18.65 M-2.34 -18.65 C-2.16 -18.69, -1.98 -18.73, -1.88 -18.75 M-2.34 -18.65 C-2.22 -18.67, -2.11 -18.7, -1.88 -18.75 M-1.88 -18.75 C-1.73 -18.78, -1.58 -18.8, -1.41 -18.83 M-1.88 -18.75 C-1.71 -18.78, -1.55 -18.81, -1.41 -18.83 M-1.41 -18.83 C-1.31 -18.85, -1.21 -18.86, -0.94 -18.89 M-1.41 -18.83 C-1.23 -18.86, -1.05 -18.88, -0.94 -18.89 M-0.94 -18.89 C-0.76 -18.91, -0.58 -18.92, -0.46 -18.93 M-0.94 -18.89 C-0.78 -18.91, -0.62 -18.92, -0.46 -18.93 M-0.46 -18.93 C-0.33 -18.93, -0.21 -18.93, 0.03 -18.94 M-0.46 -18.93 C-0.34 -18.93, -0.21 -18.93, 0.03 -18.94 M0.03 -18.94 C0.21 -18.94, 0.38 -18.93, 0.52 -18.93 M0.03 -18.94 C0.21 -18.94, 0.4 -18.93, 0.52 -18.93 M0.52 -18.93 C0.65 -18.92, 0.79 -18.91, 1 -18.89 M0.52 -18.93 C0.65 -18.92, 0.78 -18.91, 1 -18.89 M1 -18.89 C1.18 -18.87, 1.36 -18.84, 1.47 -18.83 M1 -18.89 C1.17 -18.87, 1.35 -18.84, 1.47 -18.83 M1.47 -18.83 C1.57 -18.81, 1.66 -18.79, 1.93 -18.75 M1.47 -18.83 C1.6 -18.8, 1.74 -18.78, 1.93 -18.75 M1.93 -18.75 C2.04 -18.72, 2.14 -18.7, 2.39 -18.64 M1.93 -18.75 C2.11 -18.7, 2.29 -18.66, 2.39 -18.64 M2.39 -18.64 C2.49 -18.61, 2.59 -18.58, 2.84 -18.51 M2.39 -18.64 C2.53 -18.6, 2.66 -18.56, 2.84 -18.51 M2.84 -18.51 C3.01 -18.45, 3.18 -18.39, 3.28 -18.36 M2.84 -18.51 C2.96 -18.47, 3.08 -18.43, 3.28 -18.36 M3.28 -18.36 C3.37 -18.33, 3.46 -18.29, 3.71 -18.19 M3.28 -18.36 C3.41 -18.31, 3.55 -18.26, 3.71 -18.19 M3.71 -18.19 C3.83 -18.14, 3.95 -18.08, 4.13 -18 M3.71 -18.19 C3.83 -18.14, 3.96 -18.08, 4.13 -18 M4.13 -18 C4.21 -17.96, 4.29 -17.92, 4.53 -17.79 M4.13 -18 C4.26 -17.93, 4.4 -17.86, 4.53 -17.79 M4.53 -17.79 C4.62 -17.74, 4.71 -17.69, 4.93 -17.57 M4.53 -17.79 C4.65 -17.73, 4.77 -17.66, 4.93 -17.57 M4.93 -17.57 C5.05 -17.49, 5.16 -17.42, 5.31 -17.32 M4.93 -17.57 C5.07 -17.48, 5.2 -17.39, 5.31 -17.32 M5.31 -17.32 C5.39 -17.26, 5.47 -17.21, 5.68 -17.06 M5.31 -17.32 C5.43 -17.24, 5.55 -17.15, 5.68 -17.06 M5.68 -17.06 C5.8 -16.96, 5.93 -16.87, 6.04 -16.78 M5.68 -17.06 C5.82 -16.95, 5.95 -16.85, 6.04 -16.78 M6.04 -16.78 C6.17 -16.66, 6.31 -16.54, 6.38 -16.48 M6.04 -16.78 C6.11 -16.72, 6.18 -16.65, 6.38 -16.48 M6.38 -16.48 C6.46 -16.4, 6.54 -16.33, 6.71 -16.17 M6.38 -16.48 C6.5 -16.37, 6.62 -16.25, 6.71 -16.17 M6.71 -16.17 C6.83 -16.04, 6.95 -15.91, 7.03 -15.84 M6.71 -16.17 C6.83 -16.04, 6.95 -15.92, 7.03 -15.84 M7.03 -15.84 C7.09 -15.76, 7.16 -15.68, 7.32 -15.49 M7.03 -15.84 C7.11 -15.73, 7.2 -15.63, 7.32 -15.49 M7.32 -15.49 C7.41 -15.38, 7.51 -15.26, 7.6 -15.14 M7.32 -15.49 C7.39 -15.4, 7.47 -15.31, 7.6 -15.14 M7.6 -15.14 C7.67 -15.04, 7.74 -14.95, 7.87 -14.77 M7.6 -15.14 C7.7 -15, 7.79 -14.87, 7.87 -14.77 M7.87 -14.77 C7.93 -14.66, 8 -14.56, 8.11 -14.38 M7.87 -14.77 C7.93 -14.66, 8 -14.56, 8.11 -14.38 M8.11 -14.38 C8.2 -14.24, 8.28 -14.1, 8.34 -13.99 M8.11 -14.38 C8.18 -14.26, 8.26 -14.14, 8.34 -13.99 M8.34 -13.99 C8.41 -13.84, 8.49 -13.7, 8.55 -13.58 M8.34 -13.99 C8.39 -13.9, 8.44 -13.8, 8.55 -13.58 M8.55 -13.58 C8.61 -13.45, 8.67 -13.32, 8.74 -13.16 M8.55 -13.58 C8.61 -13.45, 8.67 -13.32, 8.74 -13.16 M8.74 -13.16 C8.78 -13.06, 8.82 -12.96, 8.91 -12.73 M8.74 -13.16 C8.8 -13.02, 8.85 -12.88, 8.91 -12.73 M8.91 -12.73 C8.96 -12.58, 9.01 -12.43, 9.06 -12.29 M8.91 -12.73 C8.95 -12.6, 9 -12.47, 9.06 -12.29 M9.06 -12.29 C9.09 -12.17, 9.13 -12.04, 9.19 -11.85 M9.06 -12.29 C9.11 -12.13, 9.15 -11.96, 9.19 -11.85 M9.19 -11.85 C9.21 -11.73, 9.24 -11.62, 9.29 -11.39 M9.19 -11.85 C9.21 -11.74, 9.23 -11.64, 9.29 -11.39 M9.29 -11.39 C9.32 -11.22, 9.35 -11.05, 9.37 -10.92 M9.29 -11.39 C9.32 -11.22, 9.35 -11.05, 9.37 -10.92 M9.37 -10.92 C9.39 -10.8, 9.41 -10.67, 9.44 -10.45 M9.37 -10.92 C9.39 -10.81, 9.4 -10.69, 9.44 -10.45 M9.44 -10.45 C9.45 -10.33, 9.45 -10.2, 9.47 -9.97 M9.44 -10.45 C9.45 -10.32, 9.46 -10.19, 9.47 -9.97 M9.47 -9.97 C9.48 -9.87, 9.48 -9.77, 9.49 -9.49 M9.47 -9.97 C9.48 -9.84, 9.48 -9.71, 9.49 -9.49 M9.49 -9.49 C9.48 -9.37, 9.48 -9.26, 9.47 -9 M9.49 -9.49 C9.48 -9.35, 9.48 -9.21, 9.47 -9 M9.47 -9 C9.46 -8.84, 9.45 -8.67, 9.44 -8.52 M9.47 -9 C9.47 -8.88, 9.46 -8.76, 9.44 -8.52 M9.44 -8.52 C9.42 -8.38, 9.4 -8.25, 9.38 -8.04 M9.44 -8.52 C9.42 -8.34, 9.39 -8.17, 9.38 -8.04 M9.38 -8.04 C9.36 -7.93, 9.34 -7.81, 9.3 -7.58 M9.38 -8.04 C9.36 -7.91, 9.33 -7.79, 9.3 -7.58 M9.3 -7.58 C9.26 -7.44, 9.23 -7.3, 9.19 -7.12 M9.3 -7.58 C9.26 -7.44, 9.23 -7.3, 9.19 -7.12 M9.19 -7.12 C9.16 -7.01, 9.13 -6.9, 9.06 -6.67 M9.19 -7.12 C9.16 -6.99, 9.12 -6.86, 9.06 -6.67 M9.06 -6.67 C9.02 -6.54, 8.98 -6.41, 8.92 -6.23 M9.06 -6.67 C9.03 -6.56, 8.99 -6.45, 8.92 -6.23 M8.92 -6.23 C8.86 -6.09, 8.81 -5.95, 8.75 -5.8 M8.92 -6.23 C8.85 -6.07, 8.79 -5.9, 8.75 -5.8 M8.75 -5.8 C8.68 -5.65, 8.62 -5.5, 8.56 -5.38 M8.75 -5.8 C8.68 -5.65, 8.62 -5.51, 8.56 -5.38 M8.56 -5.38 C8.48 -5.22, 8.4 -5.06, 8.35 -4.97 M8.56 -5.38 C8.51 -5.27, 8.45 -5.17, 8.35 -4.97 M8.35 -4.97 C8.28 -4.85, 8.22 -4.74, 8.12 -4.57 M8.35 -4.97 C8.27 -4.83, 8.19 -4.68, 8.12 -4.57 M8.12 -4.57 C8.06 -4.47, 8 -4.37, 7.88 -4.19 M8.12 -4.57 C8.07 -4.49, 8.02 -4.41, 7.88 -4.19 M7.88 -4.19 C7.81 -4.1, 7.75 -4.01, 7.61 -3.82 M7.88 -4.19 C7.82 -4.1, 7.76 -4.02, 7.61 -3.82 M7.61 -3.82 C7.54 -3.72, 7.47 -3.63, 7.33 -3.46 M7.61 -3.82 C7.52 -3.69, 7.42 -3.57, 7.33 -3.46 M7.33 -3.46 C7.27 -3.38, 7.2 -3.3, 7.04 -3.11 M7.33 -3.46 C7.25 -3.36, 7.17 -3.27, 7.04 -3.11 M7.04 -3.11 C6.97 -3.04, 6.9 -2.97, 6.72 -2.78 M7.04 -3.11 C6.93 -3, 6.83 -2.89, 6.72 -2.78 M6.72 -2.78 C6.6 -2.67, 6.48 -2.56, 6.39 -2.47 M6.72 -2.78 C6.64 -2.71, 6.56 -2.63, 6.39 -2.47 M6.39 -2.47 C6.3 -2.39, 6.21 -2.31, 6.05 -2.17 M6.39 -2.47 C6.31 -2.39, 6.22 -2.32, 6.05 -2.17 M6.05 -2.17 C5.94 -2.09, 5.84 -2, 5.69 -1.89 M6.05 -2.17 C5.96 -2.1, 5.86 -2.02, 5.69 -1.89 M5.69 -1.89 C5.6 -1.82, 5.51 -1.76, 5.32 -1.63 M5.69 -1.89 C5.56 -1.79, 5.42 -1.69, 5.32 -1.63 M5.32 -1.63 C5.18 -1.53, 5.03 -1.44, 4.94 -1.38 M5.32 -1.63 C5.23 -1.57, 5.14 -1.51, 4.94 -1.38 M4.94 -1.38 C4.82 -1.31, 4.7 -1.24, 4.54 -1.15 M4.94 -1.38 C4.8 -1.3, 4.65 -1.21, 4.54 -1.15 M4.54 -1.15 C4.44 -1.1, 4.34 -1.05, 4.14 -0.94 M4.54 -1.15 C4.43 -1.09, 4.31 -1.03, 4.14 -0.94 M4.14 -0.94 C4.01 -0.88, 3.89 -0.83, 3.72 -0.75 M4.14 -0.94 C4.02 -0.89, 3.91 -0.84, 3.72 -0.75 M3.72 -0.75 C3.6 -0.71, 3.49 -0.66, 3.29 -0.58 M3.72 -0.75 C3.59 -0.7, 3.46 -0.65, 3.29 -0.58 M3.29 -0.58 C3.12 -0.52, 2.96 -0.47, 2.85 -0.43 M3.29 -0.58 C3.13 -0.53, 2.97 -0.47, 2.85 -0.43 M2.85 -0.43 C2.72 -0.39, 2.59 -0.36, 2.4 -0.3 M2.85 -0.43 C2.67 -0.38, 2.49 -0.33, 2.4 -0.3 M2.4 -0.3 C2.3 -0.28, 2.21 -0.26, 1.94 -0.2 M2.4 -0.3 C2.27 -0.27, 2.15 -0.25, 1.94 -0.2 M1.94 -0.2 C1.8 -0.17, 1.67 -0.15, 1.47 -0.11 M1.94 -0.2 C1.82 -0.17, 1.7 -0.15, 1.47 -0.11 M1.47 -0.11 C1.3 -0.09, 1.13 -0.07, 1 -0.05 M1.47 -0.11 C1.36 -0.1, 1.25 -0.08, 1 -0.05 M1 -0.05 C0.83 -0.04, 0.67 -0.03, 0.52 -0.01 M1 -0.05 C0.82 -0.04, 0.64 -0.02, 0.52 -0.01 M0.52 -0.01 C0.36 -0.01, 0.2 0, 0.03 0 M0.52 -0.01 C0.37 -0.01, 0.22 -0.01, 0.03 0 M0.03 0 C0.02 0, 0.02 0, 0 0 M0.03 0 C0.02 0, 0.02 0, 0 0 M0 0 C0 0, 0 0, 0 0 M0 0 C0 0, 0 0, 0 0" stroke="transparent" stroke-width="1" fill="none"></path></g></g><g stroke-linecap="round"><g transform="translate(515.4510145187378 184.61715984344482) rotate(0 1.213104248046875 3.097660541534424)" fill-rule="evenodd"><path d="M0 0 L0 3.73 L0 3.73 L0.23 4.1 L0.49 4.46 L0.76 4.8 L1.06 5.12 L1.37 5.42 L1.71 5.7 L2.06 5.96 L2.43 6.2 L2.43 0 L0 0 L0 0" stroke="none" stroke-width="0" fill="#aecbfa" fill-rule="evenodd"></path><path d="M0 0 C0 1.1, 0 2.21, 0 3.73 M0 0 C0 0.84, 0 1.69, 0 3.73 M0 3.73 C0 3.73, 0 3.73, 0 3.73 M0 3.73 C0 3.73, 0 3.73, 0 3.73 M0 3.73 C0.09 3.88, 0.19 4.03, 0.23 4.1 M0 3.73 C0.07 3.84, 0.14 3.95, 0.23 4.1 M0.23 4.1 C0.33 4.24, 0.42 4.37, 0.49 4.46 M0.23 4.1 C0.3 4.2, 0.37 4.3, 0.49 4.46 M0.49 4.46 C0.58 4.57, 0.67 4.69, 0.76 4.8 M0.49 4.46 C0.55 4.54, 0.62 4.62, 0.76 4.8 M0.76 4.8 C0.84 4.88, 0.91 4.96, 1.06 5.12 M0.76 4.8 C0.86 4.91, 0.97 5.02, 1.06 5.12 M1.06 5.12 C1.16 5.21, 1.26 5.31, 1.37 5.42 M1.06 5.12 C1.13 5.18, 1.19 5.25, 1.37 5.42 M1.37 5.42 C1.47 5.5, 1.56 5.58, 1.71 5.7 M1.37 5.42 C1.44 5.48, 1.51 5.53, 1.71 5.7 M1.71 5.7 C1.83 5.79, 1.96 5.89, 2.06 5.96 M1.71 5.7 C1.8 5.77, 1.9 5.84, 2.06 5.96 M2.06 5.96 C2.14 6.01, 2.22 6.06, 2.43 6.2 M2.06 5.96 C2.14 6.01, 2.23 6.07, 2.43 6.2 M2.43 6.2 C2.43 4.63, 2.43 3.07, 2.43 0 M2.43 6.2 C2.43 3.77, 2.43 1.34, 2.43 0 M2.43 0 C1.47 0, 0.52 0, 0 0 M2.43 0 C1.76 0, 1.09 0, 0 0 M0 0 C0 0, 0 0, 0 0 M0 0 C0 0, 0 0, 0 0 M0 0 C0 0, 0 0, 0 0 M0 0 C0 0, 0 0, 0 0" stroke="#00000000" stroke-width="1" fill="none"></path></g></g><g stroke-linecap="round"><g transform="translate(519.934009552002 181.18252754211426) rotate(0 1.495163917541504 5.390327453613281)" fill-rule="evenodd"><path d="M0 0 L0 10.67 L0 10.67 L0.39 10.72 L0.79 10.74 L1.18 10.76 L1.57 10.76 L1.93 10.78 L2.28 10.78 L2.64 10.78 L2.99 10.76 L2.99 0 L0 0 L0 0" stroke="none" stroke-width="0" fill="#669df6" fill-rule="evenodd"></path><path d="M0 0 C0 4.01, 0 8.02, 0 10.67 M0 0 C0 3.45, 0 6.89, 0 10.67 M0 10.67 C0 10.67, 0 10.67, 0 10.67 M0 10.67 C0 10.67, 0 10.67, 0 10.67 M0 10.67 C0.16 10.69, 0.31 10.71, 0.39 10.72 M0 10.67 C0.11 10.68, 0.22 10.7, 0.39 10.72 M0.39 10.72 C0.48 10.72, 0.56 10.73, 0.79 10.74 M0.39 10.72 C0.51 10.72, 0.63 10.73, 0.79 10.74 M0.79 10.74 C0.89 10.75, 1 10.75, 1.18 10.76 M0.79 10.74 C0.91 10.75, 1.03 10.75, 1.18 10.76 M1.18 10.76 C1.33 10.76, 1.48 10.76, 1.57 10.76 M1.18 10.76 C1.32 10.76, 1.45 10.76, 1.57 10.76 M1.57 10.76 C1.68 10.76, 1.78 10.77, 1.93 10.78 M1.57 10.76 C1.71 10.76, 1.84 10.77, 1.93 10.78 M1.93 10.78 C2.04 10.78, 2.16 10.78, 2.28 10.78 M1.93 10.78 C2.05 10.78, 2.18 10.78, 2.28 10.78 M2.28 10.78 C2.38 10.78, 2.48 10.78, 2.64 10.78 M2.28 10.78 C2.36 10.78, 2.44 10.78, 2.64 10.78 M2.64 10.78 C2.72 10.77, 2.81 10.77, 2.99 10.76 M2.64 10.78 C2.71 10.77, 2.78 10.77, 2.99 10.76 M2.99 10.76 C2.99 7.06, 2.99 3.37, 2.99 0 M2.99 10.76 C2.99 6.55, 2.99 2.33, 2.99 0 M2.99 0 C2.14 0, 1.28 0, 0 0 M2.99 0 C2.36 0, 1.73 0, 0 0 M0 0 C0 0, 0 0, 0 0 M0 0 C0 0, 0 0, 0 0 M0 0 C0 0, 0 0, 0 0 M0 0 C0 0, 0 0, 0 0" stroke="#00000000" stroke-width="1" fill="none"></path></g></g><g stroke-linecap="round"><g transform="translate(525.2507019042969 186.07488250732422) rotate(0 1.2056159973144531 2.331357002258301)" fill-rule="evenodd"><path d="M0 0 L0 4.66 L0 4.66 L0.37 4.41 L0.72 4.14 L1.05 3.84 L1.37 3.52 L1.66 3.19 L1.93 2.84 L2.18 2.47 L2.41 2.08 L2.41 0 L0 0 L0 0" stroke="none" stroke-width="0" fill="#aecbfa" fill-rule="evenodd"></path><path d="M0 0 C0 1.71, 0 3.42, 0 4.66 M0 0 C0 0.95, 0 1.89, 0 4.66 M0 4.66 C0 4.66, 0 4.66, 0 4.66 M0 4.66 C0 4.66, 0 4.66, 0 4.66 M0 4.66 C0.12 4.58, 0.25 4.49, 0.37 4.41 M0 4.66 C0.11 4.59, 0.22 4.51, 0.37 4.41 M0.37 4.41 C0.46 4.34, 0.55 4.27, 0.72 4.14 M0.37 4.41 C0.48 4.32, 0.6 4.23, 0.72 4.14 M0.72 4.14 C0.81 4.06, 0.9 3.98, 1.05 3.84 M0.72 4.14 C0.83 4.04, 0.93 3.95, 1.05 3.84 M1.05 3.84 C1.12 3.77, 1.19 3.7, 1.37 3.52 M1.05 3.84 C1.17 3.72, 1.29 3.6, 1.37 3.52 M1.37 3.52 C1.43 3.45, 1.49 3.38, 1.66 3.19 M1.37 3.52 C1.46 3.42, 1.54 3.33, 1.66 3.19 M1.66 3.19 C1.74 3.09, 1.82 2.98, 1.93 2.84 M1.66 3.19 C1.76 3.07, 1.85 2.94, 1.93 2.84 M1.93 2.84 C1.99 2.76, 2.04 2.68, 2.18 2.47 M1.93 2.84 C1.99 2.76, 2.04 2.68, 2.18 2.47 M2.18 2.47 C2.27 2.32, 2.35 2.18, 2.41 2.08 M2.18 2.47 C2.23 2.39, 2.28 2.3, 2.41 2.08 M2.41 2.08 C2.41 1.42, 2.41 0.76, 2.41 0 M2.41 2.08 C2.41 1.34, 2.41 0.61, 2.41 0 M2.41 0 C1.6 0, 0.78 0, 0 0 M2.41 0 C1.84 0, 1.27 0, 0 0 M0 0 C0 0, 0 0, 0 0 M0 0 C0 0, 0 0, 0 0 M0 0 C0 0, 0 0, 0 0 M0 0 C0 0, 0 0, 0 0" stroke="#00000000" stroke-width="1" fill="none"></path></g></g><g stroke-linecap="round"><g transform="translate(171 170) rotate(0 48.63548408939039 0.483377387542987)"><path d="M0.06 -0.68 C16.66 -0.61, 82.31 -0.44, 98.64 -0.28 M-1.37 1.58 C15.22 1.88, 81.59 1.08, 98.03 1.12" stroke="#000000" stroke-width="1" fill="none"></path></g><g transform="translate(171 170) rotate(0 48.63548408939039 0.483377387542987)"><path d="M68.77 12.6 C75.59 9.35, 82.68 6.09, 97.33 0.47 M69.56 12.12 C76.8 8.92, 82.72 6.75, 98.55 1.93" stroke="#000000" stroke-width="1" fill="none"></path></g><g transform="translate(171 170) rotate(0 48.63548408939039 0.483377387542987)"><path d="M68.66 -7.92 C75.39 -6.73, 82.51 -5.55, 97.33 0.47 M69.45 -8.4 C76.9 -6.77, 82.85 -4.11, 98.55 1.93" stroke="#000000" stroke-width="1" fill="none"></path></g></g><g transform="translate(190 150) rotate(0 28 12.5)"><text x="0" y="18" font-family="Virgil, Segoe UI Emoji" font-size="20px" fill="#000000" text-anchor="start" style="white-space: pre;" direction="ltr">POST</text></g><g stroke-linecap="round"><g transform="translate(330.66666791544844 149) rotate(0 19.94653916260853 -28.85321515417189)"><path d="M-0.95 -0.98 C5.43 -10.74, 31.76 -48.97, 38.55 -58.82 M0.75 1.12 C7.5 -8.4, 34.44 -47.12, 40.85 -57.19" stroke="#000000" stroke-width="1" fill="none"></path></g><g transform="translate(330.66666791544844 149) rotate(0 19.94653916260853 -28.85321515417189)"><path d="M32.04 -29.37 C36.32 -36.56, 36.48 -45.2, 41.19 -58.11 M34.38 -28.3 C36.16 -34.56, 37.8 -41.9, 40.89 -58.03" stroke="#000000" stroke-width="1" fill="none"></path></g><g transform="translate(330.66666791544844 149) rotate(0 19.94653916260853 -28.85321515417189)"><path d="M15 -40.8 C24.67 -44.22, 30.25 -49.21, 41.19 -58.11 M17.33 -39.72 C22.78 -43.37, 28.2 -48.18, 40.89 -58.03" stroke="#000000" stroke-width="1" fill="none"></path></g></g><g transform="translate(330 110) rotate(0 6.5 12.5)"><text x="0" y="18" font-family="Virgil, Segoe UI Emoji" font-size="20px" fill="#000000" text-anchor="start" style="white-space: pre;" direction="ltr">a</text></g><g stroke-linecap="round"><g transform="translate(390.5324317371369 89.84779029403819) rotate(0 -20.192718290349603 30.412714709346687)"><path d="M0.26 0.79 C-6.44 10.76, -33.91 49.59, -40.65 59.32 M-1.06 0.15 C-7.33 10.35, -31.63 50.66, -38.29 60.67" stroke="#000000" stroke-width="1" fill="none"></path></g><g transform="translate(390.5324317371369 89.84779029403819) rotate(0 -20.192718290349603 30.412714709346687)"><path d="M-30.65 30.24 C-34.35 38.85, -36.3 46.22, -38.19 61.76 M-30.98 31.18 C-33.7 39.97, -35.94 48.79, -39.01 60.6" stroke="#000000" stroke-width="1" fill="none"></path></g><g transform="translate(390.5324317371369 89.84779029403819) rotate(0 -20.192718290349603 30.412714709346687)"><path d="M-13.28 41.17 C-21.52 46.93, -28.06 51.4, -38.19 61.76 M-13.62 42.11 C-21.49 47.52, -28.95 53.07, -39.01 60.6" stroke="#000000" stroke-width="1" fill="none"></path></g></g><g stroke-linecap="round"><g transform="translate(431 170) rotate(0 28.422334857382793 0.15603815476410432)"><path d="M0.02 -0.69 C9.58 -0.63, 48.51 0.58, 58.28 0.58 M-1.43 1.55 C7.92 1.26, 47.53 -1.02, 57.47 -1.24" stroke="#000000" stroke-width="1" fill="none"></path></g><g transform="translate(431 170) rotate(0 28.422334857382793 0.15603815476410432)"><path d="M29.5 10.27 C41.67 6.72, 49.59 -0.39, 57.22 0.37 M30.4 8.83 C36.83 6.95, 42.8 4.8, 56.92 -1.74" stroke="#000000" stroke-width="1" fill="none"></path></g><g transform="translate(431 170) rotate(0 28.422334857382793 0.15603815476410432)"><path d="M28.67 -9.55 C41.17 -5.67, 49.41 -5.34, 57.22 0.37 M29.56 -10.99 C36.09 -8.5, 42.25 -6.29, 56.92 -1.74" stroke="#000000" stroke-width="1" fill="none"></path></g></g><g transform="translate(450 150) rotate(0 5 12.5)"><text x="0" y="18" font-family="Virgil, Segoe UI Emoji" font-size="20px" fill="#000000" text-anchor="start" style="white-space: pre;" direction="ltr">b</text></g><g stroke-linecap="round"><g transform="translate(269 190) rotate(0 -48.57085673528724 0.47481072481656383)"><path d="M-0.59 -0.69 C-16.87 -0.62, -81.62 -0.36, -97.67 -0.19 M1.3 1.56 C-15.11 1.88, -82.05 1.21, -98.44 1.25" stroke="#000000" stroke-width="1" fill="none"></path></g><g transform="translate(269 190) rotate(0 -48.57085673528724 0.47481072481656383)"><path d="M-71.36 -8.33 C-79.07 -4.06, -86.73 -1.22, -98.44 1.42 M-70.39 -9.21 C-78.85 -5.41, -86.88 -2.03, -97.65 1.28" stroke="#000000" stroke-width="1" fill="none"></path></g><g transform="translate(269 190) rotate(0 -48.57085673528724 0.47481072481656383)"><path d="M-71.45 12.19 C-79.02 10.28, -86.65 6.94, -98.44 1.42 M-70.47 11.31 C-78.85 9.05, -86.85 6.37, -97.65 1.28" stroke="#000000" stroke-width="1" fill="none"></path></g></g><g transform="translate(230 190) rotate(0 5 12.5)"><text x="0" y="18" font-family="Virgil, Segoe UI Emoji" font-size="20px" fill="#000000" text-anchor="start" style="white-space: pre;" direction="ltr">c</text></g></svg>